<svg id="Capa_1" data-name="Capa 1" xmlns="http://www.w3.org/2000/svg" viewBox="0 0 753.3 815.2"><defs><style>.cls-1{fill:#bf0811;}.cls-2{fill:#feee00;}.cls-3{fill:#0c0b0c;}.cls-4{fill:#0e0e0e;}.cls-5{fill:#0f0f0e;}.cls-6{fill:#0f0e0e;}.cls-7{fill:#11100f;}.cls-8{fill:#121110;}.cls-9{fill:#131211;}.cls-10{fill:#151311;}.cls-11{fill:#161412;}.cls-12{fill:#141311;}.cls-13{fill:#191715;}.cls-14{fill:#262220;}.cls-15{fill:#1e1b19;}.cls-16{fill:#1d1b19;}.cls-17{fill:#1a1715;}.cls-18{fill:#1f1d1a;}.cls-19{fill:#cdcac7;}.cls-20{fill:#e3e2e3;}.cls-21{fill:#4a72b2;}.cls-22{fill:#b5b1b3;}.cls-23{fill:#f3f2f3;}.cls-24{fill:#595453;}.cls-25{fill:#d0cbc2;}.cls-26{fill:#5d5858;}.cls-27{fill:#9a9393;}.cls-28{fill:#221f1d;}.cls-29{fill:#e9e8e9;}.cls-30{fill:#45403e;}.cls-31{fill:#615b5b;}.cls-32{fill:#ada7a6;}.cls-33{fill:#fafafa;}.cls-34{fill:#504a49;}.cls-35{fill:#2a2623;}.cls-36{fill:#372d19;}.cls-37{fill:#1f1c1a;}.cls-38{fill:#3d3c38;}.cls-39{fill:#bbb6b6;}.cls-40{fill:none;}.cls-41{fill:#46a3ab;}.cls-42{fill:#82a938;}.cls-43{fill:#2a3740;}.cls-44{fill:#a7ced4;}.cls-45{fill:#616971;}.cls-46{fill:#eaebec;}.cls-47{fill:#dace9c;}.cls-48{fill:#299a9f;}.cls-49{fill:#1b8b98;}.cls-50{fill:#38454e;}.cls-51{fill:#d3be88;}.cls-52{fill:#fff;}.cls-53{fill:#4b575f;}.cls-54{fill:#289ba0;}.cls-55{fill:#2a363f;}.cls-56{fill:#a8ced4;}.cls-57{fill:#a9cfd4;}.cls-58{fill:#a9cfd5;}.cls-59{fill:#5e6476;}.cls-60{fill:#d6e0e3;}.cls-61{fill:#e3e3e5;}.cls-62{fill:#768932;}.cls-63{fill:#4c5760;}.cls-64{fill:#96b851;}.cls-65{fill:#768832;}.cls-66{fill:#616a72;}.cls-67{fill:#2a3840;}.cls-68{fill:#abd0d7;}.cls-69{fill:#60abb1;}.cls-70{fill:#c3dee2;}.cls-71{fill:#70787f;}.cls-72{fill:#49a4ac;}.cls-73{fill:#7ab6ba;}.cls-74{fill:#fdfefd;}.cls-75{fill:#38454d;}.cls-76{fill:#464549;}</style></defs><title>mapaEcuador</title><path class="cls-1" d="M-1117.1,321.7a14.1,14.1,0,0,1-.1,2c-1.7,2.4.4,4,1.3,5.8,3.2,6.2,6.8,12.2,7.6,19.4.3,3.5.6,6.9-.9,10.3a11.9,11.9,0,0,1-2.2,3.3c-4.1,3.6-18.8,3.4-23.1-.5-2,13.8-3.1,27.8-6.9,41.2-1,3.8-2.1,7.4-4.7,10.4s-2.8,9.1-3.8,13.7-2.1,5.6-6.3,3.5c-5.8-2.9-12-5-17.5-8.5s-8.8-8.1-12.3-12.9c-1.9-2.6-3.9-3.7-7.2-2.9-6.8,1.7-13.3.8-19.8-2.2s-16.3-4.6-24.7-.8c-2.7,1.3-6,2.1-8.7,1-5.9-2.3-12-2.2-18-3.5s-9.9-5.3-9.9-12.4a110.4,110.4,0,0,0-1.2-12.9c-.6-4.5-3.2-6.6-7.7-6.8-13.6-.4-25.8,3.9-37.4,10.5-3.5,2-6.3,2.9-9-.9-1.5-2.1-3.8-2.5-6.2-2.6h-13.5c-2.5,0-5,0-7-2-1.7-6.2,3.1-14.2,8.9-14.8,2.1,1.9.5,3.7-.2,5.4s-2,3.8-2.2,6.1c2.2-5,5.3-9.7,6.3-15.2.4-1.7-1.1-2.6-2.4-3.5s-4.9-2.6-7.4-4.1c-4.4-2.7-5.4-4.9-4.3-10,.7-3.4,1.8-6.7,1.3-11-5.7,4.9-10.7,9.8-16.9,13.1a92.1,92.1,0,0,0-12.1,7.8c-5.4,4.2-12,4.7-18.5,5.1-1.4,0-3-.2-3.6-2,1.5-8,1.8-16.3,6.3-23.4,1.5-2.3.7-4.1-.6-6-3.5-5.2-8.1-9.7-12.3-14.3s-4.2-6.7,1.7-8.9c3-1.2,4.1-2.4,4.1-5.5.1-4.6,1.6-5.2,5.7-2.9s5.9,5.3,9.3,7.5,5.7,2.5,8.8-1.4c4.3-5.4,7.7-11.1,8.6-18.2,1.3-9.2,4.4-18.1,4.6-27.5,0-3.3,1.6-4.5,4.8-3.7a51.6,51.6,0,0,1,10.9,3.6c5.1,2.8,9.5,1.6,14-1.3,2.3-1.5,4.4-3.6,7.5-3.8,9.8-1.6,14.3,4.4,17.8,12.3s9.1,17.6,16.6,24.6c4,3.8,8,5.1,13.1,4a29.7,29.7,0,0,1,8.4-.5c1.6.2,3.5.2,3.4,2.7-2,5.2-1.5,6.8,3.1,9.3s9,5.1,13.6,7.4,8.3,1.9,12.1-1.1l3.1-2.6c8.6-7.4,16.9-7.7,26.4-1.3a56.6,56.6,0,0,1,9.8,9.1c1.7,1.9,2.9,1.7,4.6.2a21.5,21.5,0,0,0,4-5c2.9-5,7.2-6.6,12.7-5.3a62.3,62.3,0,0,1,9.6,2.8c7.2,2.7,14.5,4.8,22.3,4.9,2.3,0,4.5,1,6.7,1.8,5.4,2.2,10.9,4.1,16.9,4.2,3.5,0,6.7,1.7,9.8,3.2S-1116.4,318.9-1117.1,321.7Z" transform="translate(1860.3 -58.7)"/><path class="cls-2" d="M-1726.8,177.6h.8c.9-.6,2.5-.3,2.4-2a4.9,4.9,0,0,1,.9-3.3c3.7-5.6,2.8-10.8-2.7-14.2-3-1.8-6.8-3-7.3-6.9-.6-5.8-1.3-11.7,1.4-17.2,1.6-3.4,4.7-4,8.1-3.4a28.3,28.3,0,0,1,5.5,2.1c3.9,1.8,7.4,2.1,10.3-1.7a5.3,5.3,0,0,1,2.7-2.2c7.2-1.6,12.9-5.7,18.4-10.4a10,10,0,0,1,6.1-1.9c10.5-.4,18.8-5.9,26.7-12,2.3-1.7,4-4,6.3-5.7s4-2.7,6.4-2.2c8.3,1.8,16.6.5,24.9.6,2.1,0,4.6,1.7,6.1.3s1.1-4.1,1.7-6.2c1.3-4.6,2.9-5.9,7.5-4.9s7.1.7,9.8-2.8,5.1-2.3,7.7-3.4c5.2-2.3,6.3-3.7,6.1-9.4-.1-3.5.6-6.6,3-9.2a1.4,1.4,0,0,1,.9,0c6.9,3.9,13,9.4,20.7,11.7,9.2,2.8,15.5,9.5,22.5,15.3,2.7,2.2,3.2,4.8,2,8-1.7,4.7-2.9,9.6-5.2,14.1s-1.8,8.2,2.1,11.6a17.5,17.5,0,0,1,6.2,10.5,4.6,4.6,0,0,0,2.3,4c.7.6,1.4,1.3,1.3,2.1-.9,7.1.9,14.3-1.8,21.2a32.5,32.5,0,0,0-2.1,6.7c-1.7,10.2-8.7,15.7-17.3,19.7-1.9.8-3.9,1.3-5.4,2.6-3.1,2.3-5.9,2.4-9.3.5a6.4,6.4,0,0,0-7.8.9,10.1,10.1,0,0,1-6.5,2.3c-9,.3-18,.2-26.8-1.6a16.1,16.1,0,0,0-15.2,4c-2.8,2.4-5.7,4.7-9.8,3.9-1.3-.3-1.8.5-2.3,1.4-4.1,6.9-8.2,13.7-8.2,22.2-.1,5.8-2.6,10.1-8.1,12.7s-10,5.3-15.5,6.7c-7.3,1.9-10.7-1.4-9-8.7s1.2-8.4-6.2-11.2-7.6-3.7-5.6-10.3-1.3-12.4-6.9-16.5c-1.6-1.8-2.9-.7-4.3.3a49.8,49.8,0,0,1-11.7,6.5c-6.5,2.7-10.2,1.7-14.5-3.7-1.9-2.3-3.9-4.6-4.7-7.6s-.1-6.8-4.5-7.7C-1726.8,181.8-1728.9,180.5-1726.8,177.6Z" transform="translate(1860.3 -58.7)"/><path class="cls-3" d="M-1684.9,194.3c7.9,4.6,9.7,8.2,8.2,16.6s-1.4,7.6,5.8,10.4,8.6,5.3,5.8,12.3c-1.1,2.7.8,5,.9,7.6s3.9.3,5.9-.3c5.2-1.4,10.1-3.9,15.1-6.1s8.5-7,8.4-12.8c-.2-9.3,5.4-16.2,8.8-24.1.5-1.1,1.4-1.8,2.3-.9,3,3.2,5.2.6,7.1-1.1,6.1-5.4,12.4-7.9,20.9-5.8s16.2,1.3,24.4,1.3c1.7,0,3.4.1,4.6-1.2,4-4.5,8.3-3.5,12.6-.9,1.5,1,2.2,1.7,3.5-.2a6.1,6.1,0,0,1,2.9-1.7c18-5,22.5-19.5,25-35.3.7-4.5-1-9.2.7-13.7.3-.9-1-1-1.9-.9-1.5-1.8-.3-3.2.6-4.7a3.5,3.5,0,0,1,1.5-1.7c4.6,2.6,10,2.6,14.9,4.4,9.3,3.3,16.6,9.3,22.6,17a22.2,22.2,0,0,0,3.6,4.5c3.3,4,4.1,9,5.5,13.7s5.2,8.5,11.2,10.3c10.7,3.3,20.1,3.2,28.8-4.5a28.9,28.9,0,0,1,3.5-1.9c6.1-3.3,6.1-3.7,5.7-10.9-.2-3-2-6.8,2.3-8.7a2,2,0,0,1,1.3.8c2.7,5.3,1.8,11,1.3,16.5-.2,2.1-1.9,3.5-3.7,4.4-5.6,2.9-11,6.1-16.8,8.5-1.1.7-1.2,1.7-1,2.9s0,3.3-2,4c-7.1-3.8-15-5.2-22.9-6.5-5.4-1-9.1-3.7-10.8-9-.8-2.6-2-5-2.8-7.5-4-13.7-13.9-21.9-25.9-28a17,17,0,0,0-5.8-1.8c-4.2-.7-6.8,1.1-6.2,5.4,1.4,9.2-2.1,17.4-4.5,25.8a24.4,24.4,0,0,1-11.2,14.8c-4.5,2.8-8.9,5.8-13.9,7.9-3.4,1.4-6.6,2-9.8-.6s-3.7-1.2-5.5.2a8.6,8.6,0,0,1-4.6,1.9c-9.6,0-19.4,1.3-28.8-.8-6.3-1.3-11.2,0-15.7,4.1a14.8,14.8,0,0,1-7.9,3.9c-1.8.2-2.9,1.3-4,2.7-4.8,6.7-5.9,14.4-6.5,22.2-.2,1.9,1,2.3,2.4,2.4a10.8,10.8,0,0,1,4,.6,2.2,2.2,0,0,1,1.5,2.8c-.4,1.4-1.4,1.6-2.7,1.1-3.4-1.1-6.4.2-9.5,1.5-7.8,4-15.6,8.2-24.3,10.2-2.8.6-3.9,2.4-3.6,5.1s1.8,4.6,4.8,4.7h4c10.7.5,15.7,3.1,15.8,17a73.4,73.4,0,0,1-2.8,21.8c-1.2,3.6-.5,6.3,1.6,9.6,3.8,5.7,8.6,10.7,11.2,17.1,1.2,2.8,2.6,3.3,4.4.4a8.7,8.7,0,0,0,.9-1.1c4.8-7.8,11-11.9,20.4-8.5,3.9,1.4,5.2-.8,5-4.3s.5-4.5-.5-6.5c-1.8-4-.4-7.2,2.4-9.9a61.9,61.9,0,0,0,11.5-16.2c1.5-3.1,3.2-4.9,6.8-1.7s6.4,1.8,9.5.6a4.9,4.9,0,0,0,1.1-8.6c-6.4-4.7-13.1-9.2-19.9-13.3-2.5-1.5-5.6-.7-8.4-.8-5.1-.3-9.6-1.4-11.4-7.1-.9-2.8-3.7-2.5-5.9-2.7s-7.3-.3-10.9-1.3c-2.1-.5-4.2-1.1-5.5-3.1s-.3-4.4,2.9-3,6.7,1.6,10.2,1.6a38,38,0,0,1,15.9,3.9c3.2,1.4,3.3,2.6.9,6.1,15.6-2.2,24.7,9.4,36,16.3,5.3,3.3,4.7,10.9-.4,15a12.1,12.1,0,0,1-7.3,3c-4-.1-4.7,1.8-4.4,5.2s.8,6.9,1.3,10.4c1,6.6,1.2,6.6,7.8,7.6,5,.8,7.5,4,7.9,10,.1,1.5-.9,3.7,1.1,4.4s2.9-1.2,4-2.4c4.2-4.2,9.2-5.2,14.7-4.2a30.3,30.3,0,0,0,8.5.7,20.8,20.8,0,0,1,12.3,3.1c3.8,2.4,8.2,4.3,12.6,1.8s7.5-7.7,6.2-13.2c-2.3-10.3.4-18.9,6.9-26.9,2.8-3.4,3.3-7.9,4.5-12.1,2.4-8.7,6-10.6,14.3-7.5,3.3,1.3,5.7.8,8-1.7,4-4.1,8-8.1,13.1-10.7,1.2-.6,1.9-1.8,2.8-2.8,2.4-2.6,2.6-4.8-.8-6.8a25,25,0,0,1-7.8-7c-3.6-4.9-8-5.2-13.2-3.5a46.5,46.5,0,0,1-21.3,1.3,24.8,24.8,0,0,1-12.8-6.2c-2.8-2.4-5.4-4.9-8.4-7-1.5-1.1-3.4-2.5-2-4.5s3.6-.7,5.2.4a47.4,47.4,0,0,1,8.8,7.3,15.7,15.7,0,0,0,12.1,5c6.8.1,13.6.1,20.2-2.1,2.9-.9,5.9-1.2,8.8.2a3.9,3.9,0,0,0,4.6-.9c5.9-5.7,11.9-11.3,12.4-20.3.6-3.6,1.5-7.2,1.4-10.9,2.5-2.4,3.3-.3,3.5,1.5,1,8.7.4,17.1-5.3,24.2-2.5,3.2-4.8,6.5-8.1,8.8s-2.6,3.8-.2,5.7,5.8,5.6,10,6.3a4.7,4.7,0,0,1,2.7,2.1c3.6,5.2,9.1,8.3,14.1,11.7a10.4,10.4,0,0,0,11.8.6,18.7,18.7,0,0,1,3.2-1.5c8.1-3.7,11.3-2.8,16.4,4.5a20.4,20.4,0,0,0,2.1,2.8c2,2.2,3.9,2.3,5.6-.3a31.9,31.9,0,0,0,3-5.8c1.4-3.3,4-4.6,7.2-6.1s5.7-1.7,9.5,1.8,11.9,5.8,18.6,6.4c3.1.3,5.4-2.4,7.9-3.9,4.4-2.6,8.8-4.9,14.1-2.8,1.5.6,3.5.9,2.3,3.4a27.4,27.4,0,0,1-10.3,0c-8.3,7.2-17.1,9.5-27.2,3.7-2.3-1.4-5.3-1.7-8.2-2.5.3,12-3.6,23.1-5.4,34.6-1,6.8-5.3,12.4-10.1,17.4-2,2.1-4.4,2.4-6.7.7s-5.1-3.8-7.6-5.7-4-3.9-7.4-5v5.5c0,3.4-.1,3-3.5,3.9s-4.2,2.6-6.4,4c5.2,5.6,10.7,10.9,15.5,16.9,2.6,3.4,3.4,6,.7,10.2s-3.5,12.3-5.2,18.5a21.8,21.8,0,0,1-1.1,2.7c-.6,1-1.2,1.8-2.4.8-.4-8.2,2-15.8,4.9-23.2,1.3-3.3,1-5.6-1.1-8.2-3.4-4.4-7.5-8-11.3-12s-5-7.1,1.2-11c2.7-1.7,4.4-3.9,4.1-7.3a4.6,4.6,0,0,1,2.5-5c2.2-1.2,3.8.1,5.5,1.2,3.7,2.5,6.9,5.8,10.6,8.3s5.1,2.4,7.8-1.3a33.5,33.5,0,0,0,7.2-17.2c.8-7.3,2.8-14.4,3.5-21.7.2-2.2,1.3-5.5-1-6.4s-3.3,2.6-4.8,4.1-1.9,3.5-3.1,5.1c-3.4,4.5-7.5,4.8-11.6,1a32,32,0,0,1-4.2-5.5c-2.2-3.4-4.9-4.4-8.5-2.4l-3.6,1.8c-6,3-11.9,2.9-17.5-1-3.9-2.7-8.3-4.9-11.9-8.2-1.6-1.4-2.7-1.2-4.1.5-5.4,7-13.6,11-19.8,17.3-3,3-6.8,2.9-10.7,1.2s-6.3-1.6-7.4,3.6a49.4,49.4,0,0,1-8.9,19.3,15,15,0,0,0-2.8,13.6c1.9,7.4.4,14.2-5.1,19.9-.9,1-1.8,1.7-.5,3.3s0,3.5-2.4,3.8a5,5,0,0,1-2.4-.3c-3.4-1.2-4.1.3-3.9,3.3a71.2,71.2,0,0,1-2.6,24.3c-.5,1.8-.8,3.9.7,5.2,4.1,3.5,4.7,8.6,6.5,13.2a30.5,30.5,0,0,0,1.3,3.2c3.2,6.9,3.9,9.8,12,5.7,4.5-2.4,6.6-1,8.8,4,.7,1.5,1.3,3.1,3,3.8a5.4,5.4,0,0,1,3.7,5.9c-.3,2.9,1.2,3.3,3.6,3.1,6.3-.7,12.4-1.4,18.8-.3,3.8.7,7.6-2.2,11.1-4.1,6.9-3.6,13.6-8.2,21.8-8.1,9.9.1,19.2-2.9,28.8-5,6.5-1.4,13.1-2.1,19.4-4.2a30.3,30.3,0,0,1,15.8-.9c6.3,1.2,12.7.2,19,.7,3.6.3,7.3,0,9.3,4.6s4.1.8,5.9-.2c12.5-7.8,26.1-11.9,40.9-11.1,4.8.2,6.2,3.9,6.8,7.8s.6,8.3,1,12.4c.6,8.5,3.7,11.8,12.3,12.4,4.3.3,8.4.5,12.4,2.4a11.4,11.4,0,0,0,9.7-.1c8.7-4.2,17.6-3.7,26,.3a28,28,0,0,0,19.8,2.2c3.5-.8,6,0,7.7,3,6.8,12.6,19.8,16.6,31.3,22.7,1.9,1,2.4.3,2.6-1.4s.8-4.9,1-7.4a23,23,0,0,1,4.3-10.9c4.8-7.1,5.1-15.7,6.7-23.8s2.3-16.8,3.3-25.2c.3-1.8.2-3.7,2.9-4.3-1,4.5,1,5.9,5.2,5.6s6,.4,9,.3c6.5-.2,9.7-3.4,9.7-10a37.5,37.5,0,0,0-5-18.5c-1.8-3.2-3.4-6.5-5-9.8s.5-2.1,2-1.7c2.9,7.5,8.2,14,9.6,22.3a36.3,36.3,0,0,1,.4,10.9c-.6,5.8-5.2,9.3-12.1,9.5-3.7.1-7.4-.2-11-.4s-3.6.4-4,3.4a227.4,227.4,0,0,1-5.8,33.8c-.7,2.8-1.1,5.8-3,7.8-4.4,5-4.7,11.2-5.8,17.2-.5,2.8-.7,5.6,2.7,7.1,1.2.6,2.3,1.6,2,3.1a2.4,2.4,0,0,1-1.3,1.3c-2.5.9-1.3-1.7-2.2-2.4s-1.1-1.5-2.6.3c-8.6,10.6-16.1,22.3-28.4,29.4-5.7,3.2-11.1,7.4-7.6,15.5.4,1-.6,1.6-1.3,1.9-10.6,4.1-16.5,13.7-24.3,21s-13.4,14.3-20.1,21.5a9.4,9.4,0,0,1-1.9,1.4c-21.2,11.9-41.4,25.2-58.8,42.5-.6.6-1.2,1.9-2.3,1.3s-.3-1.4-.1-2.3c.8-2.7-1.2-1.6-2.1-1.2-17.6,7.7-36.7,11.2-54.4,18.8-6.9,3-13.9,5.2-19.9,10-2,1.6-5.6,2.2-8.4,2-5.5-.4-10,1.9-14.7,4-12.2,5.6-25.8,5.8-38.4,9.8-6.8,2.2-11.5,5.6-14.2,11.9-.9,2.2-2.1,4.2-3,6.4-3.2,7.8-8.9,12.7-17.3,14-4.7.7-7.3,3-8.3,7.6s-2.2,8.7-3.3,13c-.3,1.3-.7,1.8-1.9,1.2a3.8,3.8,0,0,1-.9-1.3c-.8-7.5,2.8-13.9,5.5-20.4.9-2.3,3.6-2.9,5.9-3.3,9.2-1.2,15-6.4,18.2-15a59.9,59.9,0,0,1,3.8-7.6c2.3-4,5.5-7.2,10-8.5,9.8-2.8,19.3-6.4,29.6-7.1a9.3,9.3,0,0,0,2.4-.4c12.9-5.8,26.9-8.3,39.8-14.1a313.6,313.6,0,0,1,50.8-18.2c4.5-1.2,8.7-3.2,13.1-4.5-6.3-9.2-15.7-6.1-24-5.6s-13.4-.9-15.6-9.3c-2.6-10.6-10.2-17-17.5-23.6s-14.4-10.8-21.4-16.5c-2.6-2.2-5.9-2.9-9.1-3.8-5.1-1.5-10.3-2.7-15.3-4.8s-9.5-.5-14.3-1.3c-12.8-2-18.7-7.7-20.2-20.8-.5-4.5-1-8.9-1.9-13.3s-3.6-8.5-8.8-9.8a58.9,58.9,0,0,1-7-2.6c-8.5-3.4-14.8-8.7-16.3-18.5-.5-3.7-2.4-7.2-3.7-10.8s-1.9-3.3-4.5-2.4c-6.7,2.4-13.5,4.6-20.4,6.7-3.1,1-4.7,2.8-4.1,6.3a26.9,26.9,0,0,1-.2,7.5c-.5,4-2,7.3-5.7,9.4s-3.7,3.5-1.5,6.5,1.9,7,.1,10.4-2.2,6.8-.5,10.4c3.4,7.3,3.5,14.5-1.5,21.3a6.7,6.7,0,0,0-1,5.7c.9,4.4-.6,8.2-3.1,11.7s-4.4,5.9-6.4,8.9-2.2,3.1-4.5,2.1-.2-4.6,1.3-6.4c4.7-5.8,8.7-11.7,7.8-19.8-.2-1.8.9-3.6,1.9-5.1,3.6-5,3.5-10.4,1.1-15.6s-2.9-10.2.1-15.3c1.3-2.2.9-4.4-.3-6.6-3-5.5-2.5-7.5,2.3-11.5,1.8-1.4,3.9-2.5,4.5-5.1,1.3-5.6-.1-6.3-4-10.5-5.8-6.3-11.5-5.5-18.3-3.1s-13.4.4-19.7-2.9l-11.4-6.3c-3-1.7-4.8-1.6-5.2,2.5s-1.2,7.9-1.7,11.8a18.6,18.6,0,0,1-9.7,14.4l-4.5,3a8.4,8.4,0,0,0-3.7,9.1c1.9,11.7,2.2,23.6,2,35.4a30,30,0,0,1-1,7.9c-2.2,8.5-5.9,11.1-14.7,10.3a10.6,10.6,0,0,0-2.5.2,6.1,6.1,0,0,1-4.4-1.5c-.5-5.8-1.1-6.9-6.2-6.7-10.9.5-17.3-5.6-22.3-14.1-1.9-3.3-3.1-7-4.8-10.4s-5.2-5.4-9.8-3-16.4,1.1-20.1-2a9.1,9.1,0,0,1-2.9-5.2,42.2,42.2,0,0,0-13.5-22.2c-3.9-3.5-6.8-7.8-9.7-12.1-5.2-7.7-4.9-15.3.7-22.6a189.9,189.9,0,0,0,12.2-18.9,9.9,9.9,0,0,0,1.4-2.7c2.1-9.2,8.6-14.5,16.1-19.3s9.9-9.4,6.2-17.3a1.8,1.8,0,0,0-.1-.5c-1.7-8.6-1.7-8.6-10.8-7.2a6.2,6.2,0,0,1-1.9.2c-7.8-1.3-11.4,2.9-12.9,9.7-2.6,11.6-9.2,19.3-20.6,22.9a12,12,0,0,0-7.2,5.9c-2,3.7-.2,6.6,4,6.4s3.5,1.4,2.4,3.8a8.6,8.6,0,0,1-3.1,3.2,46,46,0,0,1-14.5,7.7c-5.9,1.9-9.1,6-10.1,12.3s-.6,13.6-2.6,20.3c-3,10-6.6,13-17.1,13-5.3,0-10.7.3-16-.1-3.5-.3-4.3,1.1-4.2,4.3s0,9.3,0,13.9a9.2,9.2,0,0,0,4.6,8.3c3.7,2.4,7.9,3.7,11.8,5.4,6.1,2.7,11.6,6,14.3,12.6a50.5,50.5,0,0,1,.2,11,3.3,3.3,0,0,1-1.7,2.7c-4.4-1.2-4.1-5.2-3.9-8.1.5-5.8-2.2-8.9-6.9-11.4s-9-4.2-13.5-6.3c-7.3-3.4-10.7-9.1-10.5-17.1a47.6,47.6,0,0,1,.7-8.4c.7-3.6.1-6.9-2.9-9.5-.6-.9-1.2-1.8-.4-2.9a4.2,4.2,0,0,1,3.7-1c9.2,1.9,18.6.6,27.9.9,4.3.2,6.8-2,8.1-5.9a63.1,63.1,0,0,0,2.8-17.2c.5-12.9,4.4-18.5,16.3-22.7,6.7-2.4,6.7-2.4,5.2-9.5-1.2-5.4.3-9.8,4.9-13.2s7.2-4,11.1-5.6a17.1,17.1,0,0,0,10-11c2.2-6.9,5.1-13.7,7.2-20.7.3-1.2.8-2.7,2.3-3s2.2,1.2,2.5,2.4,1.3,1.7,2.6,1.6c4-.3,8-.2,12-.9s4.2-1.7,3.9-4.6c-.5-5.8,1.6-10.5,4.9-15.3a63.5,63.5,0,0,0,8.7-18.4c.8-2.4,1-4.2-1.5-6s-1.6-4.6,1.7-4.6,5.5-2.6,6.1-6.1c1.2-6.8,2.5-13.5,2.1-20.4s-2.5-8.9-9.1-9.1c-13.7-.4-14.3-1.3-15.8-15.3-.6-5.2-1.1-10.1,1.1-15.1,1.1-2.6-.9-3.9-3-4.9-10.3-5.3-10.3-5.3-9.3-16.6.3-3.2-.3-6-2.7-8.3a7.5,7.5,0,0,1-2.6-4.1A2.8,2.8,0,0,1-1684.9,194.3Z" transform="translate(1860.3 -58.7)"/><path class="cls-4" d="M-1787,451.6c.3.7.7,1.3,1,1.9-2,1.9-4,2.4-6,.1l-.3-.3c-3.2-2.5-23.4-4.5-26.7-2.7s-1.6,2.6-.7,4.2c1.8,3.2,3.7,6.4,6.4,8.8,6,5.2,6.4,11.8,5.3,18.7-1.6,9.8-5.2,18.9-9.4,27.7-3.2,6.6-9.4,8-16,7.9-3.4-.1-6.7.1-10-.1a6,6,0,0,1-2.3-.6c-.6-2.3-.6-2.3,1.6-3-1.1-.5-1.8,0-2.6.6s-2.1.7-3,1.4a15.7,15.7,0,0,1,2.3.9c8,4.5,16.1,8.7,23.2,14.5,2.5,2.1,5.8,2.3,9,2.6,6.5.7,18.6,7.7,21.9,13.2,1.9,3,3.8,3.3,6.4,1.1s7.5-6,11-9.4c5.9-5.4,12.4-9.5,20.9-8.9,4,.3,6.1-1.6,5.7-5.6s2.2-6.9-.7-10.1a2,2,0,0,0,1-2c1.6-.7,3.2-1.2,4.6.4,1,5.6,1.2,11.2-.5,16.7-1,2.9-2.8,5.3-6.1,5-10.6-1-18,4.7-25,11.3a67,67,0,0,1-9.1,7.8c-3.6,2.3-1.7,4.1.6,5.5a102.5,102.5,0,0,1,16.3,12.3l1.9,1.6c6.4,5.6,6.5,5.7,12.7-.4s9.8-9.5,15.5-13.3c3.7-2.6,5.1-5.8,4.9-10.2,0-2.2-1.1-5.2,2.5-6.1l.7.3c.2,2.4.5,4.7.6,7,.1,4.6-1.2,8.4-5.3,11.1a95.5,95.5,0,0,0-9.4,7.4c-2.3,1.9-4.4,4.1-6.5,6.2s-.1,4.5-2,6.6-.9,2-2.4.4-2.3-2.2-3.1-.9c-2.6,4.2-4.6.7-5.9-.5-6.7-6.6-13.5-12.8-21.6-17.6-5.4-3.3-8.2-9-11.2-14.2-1.5-2.7-3.1-4.4-5.9-5.3-.4,2.1,3.8,2.4,1.8,4.2s-3-1.1-4.1-2.3c-3.9-4.5-7.8-8.8-14.7-8.2a8.8,8.8,0,0,1-5.5-1.9,169.3,169.3,0,0,0-34.1-20c-.2-.1-.3-.6-1-1.9,7.8,2.1,14.2-4.6,22.2,0s15.7-.9,18.7-8.4,6.6-16.3,8.1-25c.7-4.7.4-8.8-3.4-12.3-8.2-7.7-11.3-18.1-14.7-28.3-1.5-4.4.2-7.9,3.3-10.8a27.7,27.7,0,0,1,5.2-3.8c6.9-4.1,7.5-5.5,5.1-13.1a52.2,52.2,0,0,0-10.5-19c-6.7-7.4-11-16-11.6-26.2,0-1.1-.9-3.5,2.1-2.1s4.1-.7,6-1.7c10-5.1,20.3-9,31.9-8.2,2.7.2,3.8-1.1,4.6-3.4a71.6,71.6,0,0,0,4.3-21.9c.2-9.6,3.8-14,13.5-16.3-7.3-8.7-7.1-19-6.4-29.4.3-4,14.6-22.5,18.8-23.9,6.6-2.2,11.5-6.4,16.1-11.3.9-.9,1.6-3.1,3.6-.3s3.3-.5,3.3-2.1,2-3.3,1.5-5.6,1.2-3,2.3-1,1.9.2,2.3-.4c4.4-6.2,5.7-13.4,5.9-20.7a139.8,139.8,0,0,1,3-25.8,9.7,9.7,0,0,0-2.5-9.2c-3.2-3.3-1.5-6.9-2.4-10.8,3.3.9,2.3,3.5,3.2,5.1-.9,2.6,1.8,3.3,2.7,4.9s3.7,1.1,3.2,3.9,1.2,2.9,1.8,4.3.1.7.2,1c7.6,12.4,12.2,13.5,24.8,5.7a67.4,67.4,0,0,0,6.4-4.5c2-1.4,3-1.2,2.8,1.4a17,17,0,0,0-.1,2.2c-4.9,2.6-9.2,6-14.4,8-8.3,3.1-13.3,1.7-18.9-5.2-1-1.3-1.6-3-3.4-3.9a54.2,54.2,0,0,0-2,14.3c.2,5.2-.6,10.3-1.2,15.4a39.1,39.1,0,0,1-14.4,25.5c-5.5,4.6-12.3,7.8-18.9,11a25.8,25.8,0,0,0-9.9,8c-4.1,5.5-7.8,11.5-9.5,18a24.4,24.4,0,0,0,5.1,22.9c1.4,1.7,3.1,3.1,4.4,4.8s1,6.7-.9,8.2-3.2.4-3.9-1.4-1.2-5-4.4-4.4a8.2,8.2,0,0,0-7,6.3c-.7,2.3-.4,4.6-.7,6.9-.8,5.8-1.5,11.6-3.4,17.2-.5,1.7-.8,3.2,1.6,3.8a2.5,2.5,0,0,1,2.1,2.5c0,1.7-1.4,2.2-2.7,2.5-5.2,1.1-10.5,2.1-15.8,1.9-10.4-.5-18.9,4.6-27.8,8.7-2,.9-1.9,2.5-1.8,4.2.6,7.4,4.5,13.2,9.1,18.5a64.7,64.7,0,0,1,11.1,19.4,25.9,25.9,0,0,1,1.7,7.3c.4,4.2-1,7.5-4.9,9.5a39.2,39.2,0,0,0-5.6,3.3c-4.1,3.1-5,6.2-3.6,10.9s4.6,4.6,8.3,4.6c7.6,0,15.3-.4,22.9,1.2C-1790.8,447.1-1787.4,447.4-1787,451.6Z" transform="translate(1860.3 -58.7)"/><path class="cls-5" d="M-1533.4,532.2a1.8,1.8,0,0,1,2.3-1.2c5.9-.2,8.8,3,8,8.9a43.1,43.1,0,0,1-1.1,4.9c-1.3,4.1-.9,7.7,2.5,10.9,1.6,1.6,3.2,3.7,1.6,6.2s-4,2.9-6.6,2.4a33.6,33.6,0,0,0-10.5,0c4.3,1.8,9,2,13.5,3,1.8.5,4.5.3,4.7,2.8s-2.2,3.2-4,4a73,73,0,0,0-13.8,8c-4.2,3.1-4.4,4.9-1.4,9.1.9,1.2,1.8,2.4,2.6,3.7,4.1,6.7,3.5,12.2-3,17s-8.3,8.8-5.9,16.1c1.6,5.1-.8,7.7-5.1,7.2-1.1-.9-.7-2.2-.8-3.4a9.4,9.4,0,0,0,.1-6.8c-1.9-5.2.2-9.4,3.7-13a22.3,22.3,0,0,1,2.4-1.9c6.1-4.6,8.4-8.8,1.8-16-4.9-5.2-4.2-10.3,1.2-15.1a35.6,35.6,0,0,1,9.6-6.1,16.1,16.1,0,0,1,5.7-1.7c-2.2.1-3.3.5-4.5.2a20.5,20.5,0,0,1-3.4-.7c-5.2-1.9-9.3-1.7-12.4,4s-7,4.4-11.5,3.9-5.7-.1-4,4.1c2.9,6.9-3.1,14.4-10.8,15-9.9.8-14.5-2-17.7-11.4-1.5-4.2-2.7-8.6-5.3-12.3-1.5-2.2-2.6-3.3-4.6-.4-3.9,5.8-9.9,8.7-16.3,11-4.5,1.6-6,1.1-8.5-3.2a154.7,154.7,0,0,0-14.7-20.1c-3.5-4.1-5.1-3.8-6.8,1.1-2.7,7.3-7.2,13.3-12.2,19.3s-11.5,14.5-14.4,23.7c-2.1,6.8-6,13-10,19l-.8,1.2c-3,7.1-7.4,10.1-15.2,6.6-3.3-1.5-7.7-.6-9.1-5.3s3.4-9.5,3-14.7,3.5-10.7,5.3-15.9a119.2,119.2,0,0,0,5-17.7c1.4-7,5.4-13,10.6-18.1.7-1.1,1.2-2.3,2.6-2.5,3.4.5,3.5,1.8,1.1,4.1-6.2,5.8-10.5,12.6-11.4,21.3-.6,5.4-2.8,10.3-4.8,15.2s-3.8,9.5-5.3,14.4c.1,1.5-2.3,3,0,4.5a2.4,2.4,0,0,1,.8,2.7c-1.1,3.1.2,5.7,2.7,6.6s6.8,1.4,9-2c5-7.4,10.7-14.5,12.4-23.6a13.4,13.4,0,0,1,2.5-5.4c5.4-8,10.2-16.4,17.1-23.3a24.6,24.6,0,0,0,5.6-9.8c1.1-3.1.7-5.3-2.5-7.1-5.6-3.1-6.3-7.6-2.2-12.6a28.8,28.8,0,0,1,10.3-7.7,43.7,43.7,0,0,0,14.9-10.6c5.5-5.8,12.6-8.4,20.5-9.2a5.2,5.2,0,0,1,3.6,1c3.7.8,4.9,4,5.9,6.9,3.7,11.1,11.4,16.5,22.9,17.5,3.2.3,5.7-.1,8.2-2.3,5.9-5.1,12.4-8.5,20.3-4.2.3.1.8.4,1,.2,5.4-5.2,8.5.1,12.6-1.2h2c.6.1,1.1.7,1.8.4" transform="translate(1860.3 -58.7)"/><path class="cls-6" d="M-1550.3,632.4c1.3.5.5,1.4.3,2.2-.3,3.9-2.9,5.8-6.4,6.3-1.9.3-3.6.6-4.7,2.3-3.7,5.4-8.8,9-14.7,11.6-3.2,1.4-4,2.8-.5,5s3.6,4.7,4.1,7.7c1.2,8.2,5.8,14.3,12,19.5s7,4,12,.4c1.5-1,3-2.3,4.8-2.5,9.2-.7,17.9-4.1,27-4.6,2.9-.1,5.2-.6,6.6-3.5s3.1-3.4,5.3-4.2,5.6-1.3,7,2.7,8.6,6.9,12.7,5.9c2.5-.7,1.5-2.2,1-3.5-1.1-3.3-2.9-6.5-2.3-10.1s2-3.7,4.9-1.5c.1.4.1.8.2,1.2-2.8.5-1.7,2.4-1.3,3.8s2.2,5.2,3,7.9c1.4,4.3-.1,6.7-4.6,6.4-8.4-.7-16.3-2.4-17.6-9.8-3.4.6-4.8,2.5-5.6,6.2-1.6,8.4-4,16.7-6.4,25-1.2,4.5-1.9,9-.9,13.7s.5,6.3-1.6,9c-1.5.3-1.7-.9-2.1-1.9-1.4-11.6.7-22.8,4.1-33.9,1.7-5.3,1.4-4.8-4.1-6-8.6-1.9-16.4,1.8-24.6,2.5-1.5.1-2.6,1.3-3.8,2.2-5.6,4.3-9.4,4.3-14.8-.1-7.7-6.1-14.3-13-15.8-23.3-.5-3.4-2.3-5.9-5.9-6.7s-8.1,1.2-8.4,5.9a94.2,94.2,0,0,1-6.5,28.1c-1.2,2.9-2.3,3.8-5.3,1.1a8.6,8.6,0,0,1-3.9,7.5,8.7,8.7,0,0,0-2.8,10.8c5.2,11.6,4.9,23.6,3.4,35.8a16.3,16.3,0,0,0,1.6,8.7c4.7,11,3,21.6-.5,32.6-3,9.4-7.5,15.3-18.2,14.3-1.9-.2-3.3,1.5-5.1,1.9s-3.9,0-5.5-1.4.3-3.7,2.3-4.6a24.6,24.6,0,0,1,11.7-1.8c4.1.2,6.2-1.5,7.9-5.3,5.3-12,6.8-23.8,1.9-36.3-2.2-5.8-1.4-12.3-.6-18.4a38.6,38.6,0,0,0-2.7-20.5c-3.4-7.8-2.4-14.5,2.8-21,.8-1,1.4-2.2,2.3-3.2,3-3.3,2.8-6.5.1-9.8-.5-.5,0,.2-.3-.4-3-6.9-6.9-11.9-15.8-11-4.4.5-7-3.6-8.3-8s-2.6-4.8-9.5-3.5c-4,.9-3.3,3.6-2.8,6.2,1,4.2.1,8.3-.7,12.3-1.4,6.6-.9,12.3,5,16.6a3.5,3.5,0,0,1,1.4,2.5,2.3,2.3,0,0,1-2.4,1.9c-6.5-.9-11.7-11.3-9.9-17s-.7-13.7-.6-20.6c.1-2-1.2-2.4-2.9-2.5-4.6-.3-9.3-.7-13.8.5a24.3,24.3,0,0,1-5.9,1c-5.7.1-9-3.7-8-9.4.6-3.8,2.6-7.1,4.1-10.6s1.3-7.5-2-10.8-5.5-5.2-3.1-9.4h-.1c1.4-2.1,2.6-1.1,3.3.5s3.5,5.1,5.7,7.4a10.4,10.4,0,0,1,1.9,12c-1.5,3.3-3.3,6.5-4.3,10s-.2,4.9,3.8,4.6,5.2-1,7.9-.9,3.8,1.4,5.7.7c-1.4-.1-3.7.8-3.2-2.3,4.7-3,9.4-.3,13.9.5s8.5,1.2,12.9.5,6.8.4,8.2,5.5c2,7.6,3.6,8.6,11.7,7.9,5.8-.6,6.4-.2,8.2,5.3a30.3,30.3,0,0,0,5.2,9.1c1.8,2.2,3.1,1.7,3.8-.8a58.5,58.5,0,0,0,2-10.8c.1-1,.1-2,.2-3,.9-6.3,1.4-12.2,9.1-14.9,4.9-1.7,9.2-5.4,13.9-7.8a19.8,19.8,0,0,0,8-6.6C-1562.5,635.7-1556.8,633.3-1550.3,632.4Z" transform="translate(1860.3 -58.7)"/><path class="cls-7" d="M-1705.1,612.2c1,5.1-.9,9.9-1.9,14.8,1.5,9.2-1.5,16.7-8.3,23-2.5,2.3-2.8,6.4-3.8,9.7-2,6.2-5.7,10.8-11.9,13.3a106.9,106.9,0,0,1-16.5,5.6c-2.9.6-3.3,1.6-1.8,4s3,5.2,5,7.4c6.8,7.9,7.6,17.1,6.1,26.8-.7,4.3-.5,8.6-.6,13.8,9.4-4.6,19.7-4.2,28-10.2,4.5-3.2,9.9-2.2,15-2,2.1-.1,4.5,2.4,6.5-.5a1.3,1.3,0,0,1,1.8-.4c1.8,3.7,6.2,1.9,8.7,4.1a1.5,1.5,0,0,1-.4,1.4c-2,1.2-4.2.7-6.3.9h-7.9c-7.3-.4-14.3-.2-20.6,4.2-2.1,1.5-4.9,2-7.5,2.7-12.7,3.4-24.9,8.2-35.3,16.6-4.1,3.3-7.6,2.7-12.7-1.1-2-1.5-3.7-5.7-7.3-2.1a8.5,8.5,0,0,0-.3,11.8c1.9,2,4.3,3.2,6.6,4.5a29.9,29.9,0,0,1,7.8,5.3c3,3.3,3,5.5,0,8.7a33.5,33.5,0,0,1-5.2,4.7,19.8,19.8,0,0,0-5.7,6.8,5.9,5.9,0,0,0,.7,7,10.2,10.2,0,0,0,15.1,1c6.3-5.7,13.5-10.2,20.2-15.6,4.3-3.5,8.1-2.5,11.2,2.3s7.3,9.5,13.7,11.5a55.2,55.2,0,0,1,14.7,7.5c4.6,3.1,9.2,3,14.2.9,10.9-4.7,13-4.1,21.4,4.4,4.7,4.6,8.2,10.1,11.3,15.8,1.9,3.7,3.4,7.7,1.2,11.9a3.6,3.6,0,0,1-3.1,1.9c-1.6-.2-3-1.1-1.3-2.4,3.4-2.6,1.8-5.6.7-8.1a59.1,59.1,0,0,0-16.4-21.1c-2.3-1.9-5.1-2.5-7.4-1.1-4.5,2.6-10.2,2.3-14,6.3a1.7,1.7,0,0,1-2.6-.2c-6.2-7.1-14.7-10.4-23.1-13.4-5.6-2.1-8.4-6.3-11.6-10.5s-4.6-4.9-9.4-.9-12.3,9.6-18.3,14.6c-1.9,1.5-4.9,2.9-2.8,6.4a1.1,1.1,0,0,1-.7,1.6,1.6,1.6,0,0,1-2.1-.8c-1.7-4.3-6-4.8-9.4-6.6-7.5-3.9-9-10.2-3.7-17.1a48.9,48.9,0,0,1,9.2-8.4c2.6-2,2.4-3.7-.2-5.4s-6.9-4.1-10.2-6.3c-8.1-5.3-9.4-12.5-2.9-19.6,2.8-3.1,2.1-4.4-.9-6.2-.7-.4-2-.9-1-2.2s1.8-.1,2.5.4,4,4.1,7.2,1.3c.9-.8,1.6.5,1.1,1.7s2.1,6.2,5.1,8.3,4.1,1.3,6.3-.4a54.5,54.5,0,0,1,10.3-6.9c3.8-1.9,5-5,5.5-8.7s.6-7.7,1.1-11.5c1.4-10.8-.3-20.7-8.1-29.1a24.4,24.4,0,0,1-5.7-10.9c-.2-1.1-.6-2.4.6-3.3s2.1-.4,2.9.7a2.2,2.2,0,0,0,1.8.6c6.2-1,12.1-3.3,17.9-5.6s9.1-8.2,10.9-14.4a24.6,24.6,0,0,1,7.2-12.3c2.6-2.3,6-4.9,2-9-.4-.4.4-2.1.6-3.2C-1710.9,624.2-1707.5,618.3-1705.1,612.2Z" transform="translate(1860.3 -58.7)"/><path class="cls-8" d="M-1117.1,321.7c-.7-.2-2.4,0-1.9-.7,2.2-3.5-.7-3.5-2.5-4.6a19.4,19.4,0,0,0-10.4-2.8h-1.5c-12.9-4.9-26.9-5.6-40-9.9-2.9-1-5.9-2.1-8.9-2.9-9.6-2.4-10.3-2.1-16,6.1l-.9,1.2c-4.6,5.7-4.5,5.5-9.5.5s-11-11.7-19.9-12c-5.1-.2-9.2,2-13,5.2-8.7,7.4-11.3,7.6-21.3,1.9-2.8-1.5-5.3-3.5-8.2-4.6-4.6-1.7-6.4-4.8-6.5-9.4-.1-2-.3-2,2.6-1.1l.6.5a10.1,10.1,0,0,0,5.9,7,111,111,0,0,1,9.9,5.8c4.2,2.5,8,2.3,12-.9s7-6.1,11.6-7.5a19.2,19.2,0,0,1,15.9,1.7,49.1,49.1,0,0,1,12.2,9.4c2.2,2.4,4.3,2.3,5.6-.3,5.3-10.2,13.9-9.8,22.4-6.4,13.5,5.5,28.3,5.5,41.8,10.9,6.1,2.4,13.3,1.4,19.1,5.3a2.1,2.1,0,0,0,2.8-.2c1-1.1.7-2.5,0-3.7a16.6,16.6,0,0,0-6.7-5.9c-13.9-7.3-21.5-19.7-27-33.8a51.1,51.1,0,0,0-4.3-8.4c-2.8-4.6-1.5-7.3,4-7.6s10.5.9,15.8,1.9,8.1,1.5,12.5,0c-8.2-1.3-13.1-8.5-20.5-11.1-2.3-.8-4.4-2.5-7.1-1.6a2.6,2.6,0,0,1-2.7-1c-4-5.5-10.2-4.8-15.9-5.7a10.9,10.9,0,0,0-4.4-.1c-7.9,1.8-12.9-1.4-16.5-8.3-1.8-3.7-4.7-6.8-7.3-10.1-1.2-1.4-2.3-2.8-2.2-4.8s.6-1.5,1.6-1.1c5.3,5.3,9.3,11.6,13.7,17.6,1,1.3,1.7,2.8,3.8,2.6,21.8-1.8,39.5,9.4,57.8,18.5,2.8,1.4,7.6,2.3,7.1,5.9s-5.5,3-8.5,3.8c-6,1.6-11.7-1.3-17.7-1.9a68.9,68.9,0,0,0-11.4-.6c3.7,5,4.6,10.9,7.4,15.8,5.7,10,11.3,20.4,22.2,26.1,2.8,1.5,5.2,3.6,7.8,5.4,5.1,3.5,2.5,9.1,3.4,13.7.2,1-1.2.9-1.9.6S-1115.6,320.8-1117.1,321.7Z" transform="translate(1860.3 -58.7)"/><path class="cls-9" d="M-1522,131.7v1.8c-1.3.7-2.7,1.1-3.9-.2-.4-4.3-3-7.3-5.9-10.1s-4.7-8-2.5-13.4c8.8-22.6,9.1-14.4-7.8-29.9-2.4-2.2-5.3-3.2-8.3-4.4-8.3-3.4-16.6-6.9-22.7-13.9.1-1.5.5-2.8,2.1-2.9s.9,1.3,1.1,2.2,1.8,2.3,3,3.1c4.3,3.1,8.9,6.1,13.9,7.7,8.9,2.8,16,8.3,22.2,14.7s10.6,6.2,17.2,4.8c3.9-.8,7.8-1.6,11.7-2s6.7,1.3,7,6.1a3.8,3.8,0,0,1,0,1.5c-3,10.4,1.4,16.5,10.8,21,7.5,3.6,13.9,9.1,21,13.5s15.9,4,24.1,1.9c14.5-3.7,15-3.5,16.9,11.2.4,3.1.8,5.3,5,5.6s10,2.4,14.7,4.5c10.1,4.5,11.1,7,6.3,17-.4,1.2.3,2.5-.4,3.6-2.6,1.9-3.2.2-3.2-2s1-4.1,1.7-6.2.2-6.2-3.2-7.9a56.6,56.6,0,0,0-14.5-5c-1.5-.3-2.9-.3-4,1.2a2.1,2.1,0,0,1-3.4.3h.1c-3.3-3.9-2.6-8.9-3.2-13.4-.9-7.3-1.9-8.3-9.2-6.1-9.2,2.7-18.3,4.4-27.2-.5a164.4,164.4,0,0,1-17-10.4c-2.8-2.1-5.7-4-8.7-5.9s-4.1-2.8-6.9-2.4-3.5-1.3-4-3.5.9-4.1.7-6.2a25.9,25.9,0,0,0,1.2-5.2,32.9,32.9,0,0,1-1.2,5c-.1,1.6.1,3.3-2.3,2.9-2.4-2.4-1-5-.6-7.6,1.7-9.7,1.5-10-8-8.2-4.3.8-8.4,2.1-12.9,1.6a2.9,2.9,0,0,0-3.2,2.5c-1.1,4.7-3.4,9-5.2,13.5a7.4,7.4,0,0,0,1.8,8.6A27.4,27.4,0,0,1-1522,131.7Z" transform="translate(1860.3 -58.7)"/><path class="cls-10" d="M-1653,834.5c.7-.7,1.3-1.4,2-2s2.7.3,3.8,1.2l3.3,2.7c4.7,4.4,5.6,10.5,7.4,16.2,2.9,9.4,6.8,12.4,16.7,11.4a18,18,0,0,1,11.8,2.8c6.8,4.1,8.5,3.8,14.2-1.8s8.7-9.2,14-12.8c3.6-2.4,4.3-6.1,4.4-10,.6-12,2.6-14.6,14.6-16.8,4.6-.9,6.2-2.6,6.4-7.3.2-6.7,3.4-12.8,6.1-18.9a47.7,47.7,0,0,0,4.4-18.1c.3-10.1,1.9-20.2,5.8-29.7.8-2,1.5-4.2,4.3-4.3.8.3,1.4.8.9,1.8-5.1,9.7-5.6,20.6-7.4,31.2-.6,3.8,1.5,7.1,2.9,10.4.4,1.1,2.5,2.7.2,3.7s-1.5-1.7-2.2-2.6l-1.3-1.9c-2.6,9.6-6.7,18.5-8.4,28.2-.5,2.7-2.9,5.7.7,8.5.4.3-2.9,4.1-3.5,6.9-.1.6-1.6-.7-1.3-1.7.9-3.6-1.2-3.3-3.6-3.2-4.2.2-8,1.8-11.8,3.6s-3.1,3.4-3.2,5.7-.2,6-.2,9-.8,5.4-3.3,6.9c-6.6,4.3-11.8,10.2-17.3,15.7s-7.1,6-13.6,2.4-11.8-4.3-18.4-4.3c-9.3,0-13-3.3-15.2-12.4a72.9,72.9,0,0,0-4.1-12.2c-1.6-3.3-3.1-6.8-7.8-6.5C-1652.7,836.4-1652.9,835.4-1653,834.5Z" transform="translate(1860.3 -58.7)"/><path class="cls-11" d="M-1574,61.6a43.9,43.9,0,0,0-1.8,12.5c-.1,4.6-3.9,6.2-7.6,7.5s-6.1,1.9-8.4,4.8-5.9,1.9-8.9,1.1-5.9.7-6.3,4.5a12.8,12.8,0,0,1-.7,3.9c-.7,1.8,2.1,9.1-4.2,2.9-.6-.6-2.2-.3-3.4-.3-8.6-.3-17.2,1-25.8-.8-2.8-.6-5.2,1.4-6.9,3.4-5.5,6.9-13.4,10.2-20.8,14.2-1.9,1-4.1,2.1-6.1,1.9-7.3-.4-12.7,2.9-17.7,7.6-2.1,2.1-5.1,3.1-8,3.9s-4.8,1.4-6.4,3.5c-3,3.9-6.7,4.2-10.6,1.9-10.2-5.9-13.8-2.3-14.4,9.5-.3,6.5,1.1,10.8,7.5,13.8s7.2,9.8,3,15.3a3.1,3.1,0,0,0-.8,3.2c.4,1.1,1.8,2.6.4,3.5s-2.7-1.2-4.1-1.8c.6-2.3,1-4.5,2.5-6.4,3.1-3.8,2.8-9.4-1.7-11.3-10.5-4.3-9.8-12.5-8.8-21.1s6-12.1,14.1-8.3c5,2.4,9.2,3.3,13.1-1.7.9-1.2,2.9-1.5,4.4-2.2s1.7-.4,2.3-.9c12-10.2,28.5-10.5,41.5-18.5,2.9-1.7,5.3-4.5,7.7-7a13.9,13.9,0,0,1,13.5-4.5c8.4,1.6,16.9-.5,25.4,0,2,.2,1.8-1.1,2.1-2.4,2-8.6,2.7-9,11.4-7.8,2.4.3,4.6.2,6.2-2.1s4.6-3.1,7.3-3.9c4.9-1.3,7.7-3.9,7-9.6C-1578.4,66.6-1578.7,62.7-1574,61.6Z" transform="translate(1860.3 -58.7)"/><path class="cls-12" d="M-1397,174.6c0-1.1-.2-2.3.9-3.1,4.2,2.8,5.2,6.9,4.6,11.5s1.4,7.5,6.4,7.9c7,.6,14,1.4,20.8,4.2,3.2,1.3,9.3,3.5,9.6-4.3,0-.5,1.5-.4,1.9.6s1.3-.4,1.8-.9c2.8.4,3.4,2.6,1.6,3.8s-1.8,4.4-.8,6.7,4.2,4.7,7.6,4.4a65.2,65.2,0,0,0,9.8-1.9c15.9-4.3,31.7-4.7,47.4,1.1a60.4,60.4,0,0,0,10.2,2.4c5.7.9,7.8-.6,9.3-6.2,1-3.9,1.7-7.8,3.6-11.3,5.9-10.6,17-12.5,25.2-3.7,3.5,3.8,7.2,4.6,11.8,4.2s10-.9,15.1-.1c-.6,3.2-4.7.1-4.7,3.4.3,1.2-.4,1.5-1.3,1.7-4.2-1.2-8.5-1.2-12.8-1.1s-6.9-1-9.2-4a11.4,11.4,0,0,0-1.1-1.1c-7.5-7.5-16.4-5.7-20.5,4.4-1.1,2.7-1.5,5.7-2.4,8.6-2.2,7.1-5.5,9.3-12.9,9.1-4.9-.2-9.6-1.7-14.1-3.4-13.9-5.3-27.7-4-41.7-.6-3.5.8-7,1.9-10.8,2s-8.9-1.5-11.5-5.6-3.8-3.9-7-3.5a14.8,14.8,0,0,1-6.8-1.4,46.5,46.5,0,0,0-16.4-3.6c-8.8-.3-11.7-3.5-12-12.4A19.1,19.1,0,0,0-1397,174.6Z" transform="translate(1860.3 -58.7)"/><path class="cls-13" d="M-1755.1,601.9c-.5-7,3.9-12.9,10.8-16.7,10.6-5.7,21.6-10.8,34.1-5.9,1.7.7,5.2-3.5,5.3,1.9,0,.8.2,1.5-.4,2.1-5.5,6.4-11,12.9-17.7,18.1a25.3,25.3,0,0,0-8.6,11.4c-3.4,9.3-11.3,10.9-19.5,12.2-2.4.4-2.5-1.5-2.6-3.1C-1754.2,615.7-1754.6,609.6-1755.1,601.9Z" transform="translate(1860.3 -58.7)"/><path class="cls-14" d="M-1697.1,524.8c-1-.6-2.5-.7-2.5-2.2s-1.1-2.1-2.9-1.5a12.9,12.9,0,0,1-4.4.4c-4.6-.2-7.7.5-8.3,6.5s-4.7,10.4-9,14.4c-1.7,1.6-3.6,2.3-5.8,1v.2c-1.3-2,.4-2.6,1.7-3.3,5.8-3.5,8.9-8.9,9.9-15.4.6-4.3,2.7-6.5,7.1-6.7h1c5.3.2,9-2,10.9-7.1a2.8,2.8,0,0,1,2.2,0c1.4,1.3,2.2,3.3,4.3,3.7a2.9,2.9,0,0,1,2.3,2.9c-.1,1.4-1.3,1.7-2.5,1.9s-1.7,1.5-1.6,2.9A4.7,4.7,0,0,1-1697.1,524.8Z" transform="translate(1860.3 -58.7)"/><path class="cls-15" d="M-1697.1,524.8c.1-1.2.5-2.2,1.9-2.3,2.9,3.7,1.4,8,1.5,12,0,8.7,3.5,15.4,10.1,20.7,1,.8,2.5,1.3,1.7,3.1a3.2,3.2,0,0,1-2.3,2.2C-1695.9,551.2-1698.9,538.9-1697.1,524.8Z" transform="translate(1860.3 -58.7)"/><path class="cls-14" d="M-1532.9,748.9l-1.3-1.5a1.9,1.9,0,0,1,0-2.3c5.4-6.2,11.2-12,17.1-17.7.1.9.2,1.7,1.1,2.1-1.5,4.5-5.7,6.8-8.6,10.2S-1530.1,745.8-1532.9,748.9Z" transform="translate(1860.3 -58.7)"/><path class="cls-16" d="M-1216.4,194.7l1.5-1.4a245.9,245.9,0,0,1,19,19.2l-1.2,1.3c-1.5.2-2.5-.8-3.5-1.7-4.7-4.6-9.4-9.3-14-14C-1215.5,197.1-1216.5,196.2-1216.4,194.7Z" transform="translate(1860.3 -58.7)"/><path class="cls-1" d="M-1356,373.7c-13.2.3-25.7,4.7-38.5,7.4a235.7,235.7,0,0,1-28.8,4.4,23.7,23.7,0,0,0-9,2.8c-3.7,2-7.3,4-11.1,5.8s-8,3.6-13.2,2.6-11.3.2-16.9,1.2c-3.5.6-3.7-.8-3.2-3.3s1.3-5.4-3.2-5.9c-2.1-.3-2.9-3-3.4-5.2-.9-3.8-3-4.9-6.6-3.1h-.4c-9.5,3.6-9.9,3.4-13.7-6.1-1.6-4-3.4-7.9-3.8-12.3,0-.5-.1-1.3-.3-1.3-7.8-2.1-4.7-7.4-3.6-12.1a60,60,0,0,0,1.8-13.3V322.5c3.5-.5,6.6,2.4,10.2,1.1-.5-2.9-3.4-1.4-4.5-3.5,9.7-6.1,10.6-15.3,8-25.3a9.4,9.4,0,0,1,1.8-8.4c5.1-7.3,9.4-14.9,10.8-23.8.7-4,3.4-5.3,7-3.1,6,3.8,10.6,1.5,14.8-3.1s6.4-6.7,10.8-8.7c2.7-1.1,4.4-3.7,5.7-6.1s3.2-2.7,5.1-.8c4.4,4.6,9.9,7.3,15.2,10.5,3.2,1.9,6.7,1.8,10.2.3s4.6-2,6.7-3.2c4.4-2.4,7.6-1.5,9.9,2.9l1,1.7c5.9,8.7,10.3,8.6,14.8-.8,1.3-2.6,4.3-3.6,4.8-6.7.2-1.3,1.5-.7,2.5-.4a2.4,2.4,0,0,1,2.1,2.8c-.4,4.4-.3,9-1.2,13.4-2.3,11.2-1.9,23.3-10.1,32.7-4,4.6-4.9,4.9-9.6,1.2s-8.2-6.3-12.1-9.7c-1.2-1.1-2.1-1.1-2.8,0s-3,1.1-2.1,2.9c3.1,5.7-1.3,7.8-4.8,10s-5.1,3.3-1.2,7.6,9.4,9.4,13.5,14.7c1.7,2.2,2.3,3.9.7,6.9-4,7.4-5.1,15.7-6.1,23.9a2.4,2.4,0,0,0,2.8,1.6c8.7-.9,17.7-1.2,24.4-8.2a16.7,16.7,0,0,1,5-3.3c5.3-2.6,10.2-5.5,14.4-9.8,1.3-1.3,3-2.9,4.7-2.1s.7,3.2.5,4.9a10.5,10.5,0,0,1-.5,1.9c-1.4,6.8-.5,8.8,5.6,12.2,2.3,1.3,5,2.1,6.8,4.1s2.1,5.2-1.9,6.7S-1356,367.3-1356,373.7Z" transform="translate(1860.3 -58.7)"/><path class="cls-17" d="M-1347,359.5c3.5-3.7,3.5-5.1-.8-7.3-12-6.2-13.1-5.9-9.9-22.3-6.9,7.4-16.6,10.6-24.1,16.9s-17.7,6.7-27.2,7.9c-.8.1-1.7,0-1.9-1.1s2.1-.7,2.1-2.1l1.8-1c7.7,1.9,14.8.1,21.3-4.1,2.3-1.4,4.1-3.6,6.4-4.7,8-3.7,14.5-9.3,21-14.9a6.2,6.2,0,0,1,4.4-1.9c-.9,4.6-1.5,9.1-2.6,13.5s.3,6.3,3.8,8.1,5.8,3.2,8.6,5,3,4.1,1.6,6.9-4.6,7.2-4.5,11.9c.1,1.1-2.7,2.9-4.5,3.3s-1.3-1.2-.8-2.3C-1350.5,367.4-1348.7,363.5-1347,359.5Z" transform="translate(1860.3 -58.7)"/><path class="cls-18" d="M-1334.4,245.6c3.4-.9,7.3,1.3,10.5-1.4,2.8-.8,3.8,1.5,4.9,3.2,2.7,4,4.6,8.5,6.7,12.8a103.1,103.1,0,0,0,9.6,15c5,6.8,11.2,9.4,19.4,7.6,3.8-.9,7.6-1,10.5,2.4a2.5,2.5,0,0,1,.7,3.1c-.8,1.3-1.9,1-3,.2h.1c-.1-2.7-2.2-2-3.7-1.9-3.6.1-7.2.5-10.9.8a12.5,12.5,0,0,1-10.7-4.1c-6.1-6.2-11.5-12.9-15-20.9-.3-.7-.6-1.2-.9-1.8C-1320,252.8-1322.8,243.8-1334.4,245.6Z" transform="translate(1860.3 -58.7)"/><path class="cls-19" d="M-1719.1,190.7c-1.6-1-3.1-2.8-2.5-4.4s-2.4-2.1-2.5-3.8C-1718,182.6-1720.6,187.9-1719.1,190.7Z" transform="translate(1860.3 -58.7)"/><path class="cls-20" d="M-1525.9,133.3c1.2,1,2.6-.2,3.9.2-.5,1.3-3.1,1.8-1.9,4A4.3,4.3,0,0,1-1525.9,133.3Z" transform="translate(1860.3 -58.7)"/><path class="cls-1" d="M-1471,400.4c4-1,7.9-1.6,12,0s5.6.2,8.4-.6a89.5,89.5,0,0,0,18-8.4c4.3-2.5,8.8-4.2,13.7-3.7,11.1,1.1,21.2-3.8,31.7-5.8,15.7-3,31.1-6.9,47.3-5.2,4.7.6,9.4.2,11.1,6.2.2,1,1.1,2.4,3.9.8,12.6-7.7,25.7-14.4,41.3-13.6,5.5.3,7.2,3.2,7.4,7.9s.1,6.7.3,10c.5,9.2,4.7,13.6,13.8,14.6a36.8,36.8,0,0,1,8.8,1.5,23.9,23.9,0,0,0,18.9-.3c7.2-3.1,14.8-1.6,21.6,1.9s12.4,3.4,19,2.2c2.2-.4,4.7-1.1,6.2,1.5,6.7,11.8,18.3,16.9,29.8,22.3,6.1,2.8,6,2.9,2.1,8.6-6.9,10-14.8,18.8-25.2,25.2-4.6,2.8-8.9,6.3-10,12.1-.3,1-1.4,1.9.1,3s.6,2-.6,2.7c-9.6,5.4-15.8,14.5-23.7,21.8-1.3,1.1-2.4,2.3-3.6,3.5-6.7,6.4-12.5,13.8-20.3,19.1-17.2,11.9-35.9,21.9-50.7,37.1-2.4,2.4-4.7.9-6.9.5a10.1,10.1,0,0,1-6.8-4.6c1.6-1.5,3.7-.1,5.4-.9a3.6,3.6,0,0,0,3.4-2.2c-11.7-1.6-23.2-1.1-34.5.1-4.9.5-8.1-1-9.1-5.5-2.9-13.5-12.8-21.5-22.6-29.4-11.5-9.5-23.2-18.6-38.7-21.5-5.7-1.1-11-3.3-17.3-3.2-13,.4-17.3-4.2-19.3-17-.9-5.5-1.2-11.2-2.9-16.7s-4.5-8.3-9.6-9.7l-6.6-2.2c-7.8-2.7-13.7-7-15.2-16-.7-4.4-3.5-8.4-4.2-12.7s-.4-9.9-.5-14.8S-1476.3,401.4-1471,400.4Z" transform="translate(1860.3 -58.7)"/><path class="cls-1" d="M-1481.2,666.1c-3-2.1-3.7-.2-3.9,2.3s1.8,7.1,3.2,10.4.4,4.3-2.8,4a31.6,31.6,0,0,1-10.1-2.3,6.5,6.5,0,0,1-3.6-3.3c-.7-1.6.7-4.9-2.5-4.4s-7.1,1.3-7.8,4.5c-1.1,4.7-4,3.8-7.2,4.3-9.6,1.3-19,3.2-28.5,4.8-2.1.4-3.4,2.1-4.8,3.4s-5.8,2.6-8.6.5c-7.1-5.6-13.9-11.4-15.3-21.2-.6-4-1.5-8.2-6.4-9.9-1.9-.6-2-3.1.4-4.2,7.4-3.2,14.1-7.3,18.5-14.4.6-1,1.7-1.9,4.1-1.1s4.6-2.8,6.5-4.9c2.1.8,3.6,1.1,4.2-1.9a13.3,13.3,0,0,0-.6-7.4c-1.8-4.7-.5-8.4,3.4-11.3l.4-.3c11-9.8,11.2-11.7,2-23.2-2.1-2.6-1.8-4.8.3-7s6.7-5.3,10.6-7.3l8.4-4.3c.8-.5,2-.7,1.8-2s-1.5-1-2.4-1.1c-5-.9-10.1-1.6-15.1-2.6-1-.3-3.5.4-3.1-2s2.1-1.9,3.6-1.8l9.9.8c2.2.1,4.6.6,5.8-1.7s-.6-4-2-5.1c-4.2-3.5-4.2-7.5-2.6-12.1a21.6,21.6,0,0,0,1-4.4c.9-5.3-1.1-7.9-6.6-8.7v-.4c5.9-7,14.3-12.6,12.1-23.7a6.2,6.2,0,0,1,1.5-5.1c5.6-7,4.7-14.5,1-21.6-1.7-3.4-1.4-5.9.3-8.7,2.8-4.6,3.6-8.8-.9-13-2.5-2.4,0-3.8,1.8-5,6.3-4.4,8.9-11.4,6.8-19.2-.4-1.6-.8-2.2,1.2-3.2,8.8-4.5,18.7-5.8,27.6-10,2-1,1.6,1.1,1.8,1.9,2.1,5.7,4.3,11.5,5.9,17.4a16.7,16.7,0,0,0,8.8,10.9,50.1,50.1,0,0,0,12.9,5.3c5.4,1.2,8.2,4.7,9.1,9.9s1.9,12.5,3.1,18.7c1.8,9,6.2,13.3,15.2,14.8,4.6.7,9.2,1.9,13.9.6a2.6,2.6,0,0,1,2.3.4c5.9,3.6,12.8,4.4,19.3,6.4a31,31,0,0,1,10.3,5.8c8.2,7,17.3,12.9,25,20.6,4.7,4.6,8.5,9.5,10.3,16.1,2.5,9.2,5.7,10.7,15.3,9.8,5.6-.6,11.3-.2,17-.4a2.9,2.9,0,0,1,2.9,1.4c1.3,2.9,3.9,4.4,7.8,6.2l-28.9,9.2c-15.9,5.2-31.9,10.3-46.6,18.5-3.5,1.9-7.3.5-10.5,2.2-14.7,7.6-31.1,9.3-46.8,13.2-9.5,2.4-16,7.3-19.1,16.2s-9.8,16.3-20.7,17.5c-3,.3-4.7,2.1-5.5,4.9C-1478.4,654.6-1481.1,660-1481.2,666.1Z" transform="translate(1860.3 -58.7)"/><path class="cls-2" d="M-1787,451.6c-1.2-3-3.9-3.6-6.7-3.9-8.3-1.1-16.6-1.9-24.9-1.2-3.4.2-5.9-.2-7.1-3.6s-2.9-7.9.5-11.7a20.6,20.6,0,0,1,7.8-5.2c4.9-2.2,6.2-6,5.1-10.6a57.3,57.3,0,0,0-11.9-23.9c-5-6.1-10-12.4-10.1-21,0-2.5,1-3.1,2.9-4.3,11.8-7,24.7-9.3,38.2-9.6a30.3,30.3,0,0,0,5.9-1c.9-.2,2.3,0,2-1.5s-1.5-1.2-2.7-1l-3.1.4c1.7-7,4.1-13.5,4.3-20.4.1-2.3.5-4.7.6-7,0-4.8,2.9-7.6,6.9-9.5s6.2-.6,7.4,3.7c.3,1.1-.3,3.2,1.5,3.2s.3-2.4.7-2.7c4.7-3.9-.2-5.5-1.9-7.1-7.2-6.9-10.3-16.4-7.8-24.7,3.5-11.2,8.1-23.1,20.8-28.6,7.1-3.1,14.3-6.9,20-11.9,9.1-8.2,13.1-19.3,13.3-31.6a125.8,125.8,0,0,1,2.7-24.4c2.6.9,3.3,3.5,4.8,5.4,5.5,7.5,9.8,8.7,18.5,5.1a53.1,53.1,0,0,0,10.4-5.8c1.2-.9,2.3-2,3.9-.7,5.8,4.7,7.4,10.3,5.2,17.5-1.5,4.6,0,8.2,5.6,9a15.7,15.7,0,0,1,5.1,1.9c2.9,1.4,4,3.4,2.2,6.5-4.6,8.2-.1,16.3.7,24.3.3,2.8,3.2,3.6,5.9,3.7s6,0,9,.2c5.6.4,8,2.8,8.2,8.5a103.7,103.7,0,0,1-3,27.2c-.6,2.1-1.1,3.9-4,2.6a6.9,6.9,0,0,0-2.9-.2c-.9.1-1.8.3-1.9,1.3s.9,1.7,1.9,1.5c3.7-.5,3.3,1.6,2.5,3.8-2.8,8.7-5.9,17.3-11.7,24.6-2.8,3.5-3.2,7.6-2.8,11.8s-.3,6.7-5.3,6.2c-2.6-.2-5.3.5-7.9.6s-8.9,2.4-8.7-5.4c-2.8,9.2-6.6,17.4-9.4,25.9a14.6,14.6,0,0,1-8.8,9.5,96.3,96.3,0,0,0-10.2,5c-7,4-8.7,8.7-5.2,15.8,1.7,3.5,1.2,5.1-2.2,6.2s-4.3,1.9-6.5,2.6c-9,3.1-13.3,8.5-13.8,18-.3,7-.9,13.9-3.1,20.7-1.5,4.7-4.2,7.4-9.8,7-9.6-.8-19.3.8-28.8-1.6C-1785.4,451-1786.2,451.5-1787,451.6Z" transform="translate(1860.3 -58.7)"/><path class="cls-1" d="M-1275.1,288.5c1,.3,2.3.4,2.5-.7a3.2,3.2,0,0,0-1.5-3,9.2,9.2,0,0,0-7.2-.9c-10.1,2.7-17.4-.7-23.4-9.1-4.5-6.2-7.6-13.1-11.4-19.7-2.2-3.8-3.2-8.7-7.8-10.9-6.2-2.8-11.8-1.5-17,2.6s-9.4,5.2-15,1.7c-2.6-1.6-5.9-2.2-9-3s-6.4-1-5.4-5.7a1.1,1.1,0,0,0-1.1-1.4,1.3,1.3,0,0,0-1.5,1.4l-.3,3c-5.3-1.4-7.4-.3-9.4,4.6-.6,1.4-1.3,2.7-2,4-3.6,6.9-5.8,7-10.3.4-6-8.7-7.5-9.3-17-4.1-6,3.3-11.4,3-16.4-1.3s-10.4-6-13-12c-.4-.9-4.1-.5-6-2.2s-7.7-4.3-8.7-7.9,4.4-5.8,6.9-8.3c7.8-7.9,10-17.4,9.2-27.9-.1-1.4-.6-2.2-2-2.4l-.2-.3c4.1-4.4,9.7-6.1,14.8-8.7s5.7-4.4,5.3-8.9.2-8.3-1.1-12.3h1.9c1.3-5.5,5-2.8,7.8-2.2a53,53,0,0,1,13.9,5.2c3.7,2,4.3,4.6,3,8.3-.8,2.1-1.7,4.3-2.3,6.5s-.5,3.3,1.8,1.3c3.3.8,3,3.5,3,5.9.1,11,1.9,12.9,13,13.2a28.1,28.1,0,0,1,12.5,2.7l1.4.5c7,1.4,14.2,1,18.5,9.1,1.9,3.6,7.9,1.9,12.2.9,8.7-2.1,17.4-4.2,26.5-4.3a59.1,59.1,0,0,1,20,3.3c5.2,1.7,10.4,3.5,16,3.6s8.5-1.4,10.3-7.8c.7-2.3,1-4.8,1.8-7.2,1.7-5.8,5.4-10.1,11.2-11.7s9.8,1.7,12.9,5.8,6.5,4.1,10.6,4.1,7.7-1.4,10.7,2c6.1,6.7,12.6,13,19.3,19.1l14.8,20.6c.9,1.2,1.6,1.9,3.6,1.6,7.2-1.2,14.5-.5,21.7,1.1,2.7.5,5.7,1.2,6.4,4.7.2,1,1.7,1.3,1.8,1.1,1.9-4.5,3.9-.5,5.5,0,9.3,3,15.6,11.8,27.1,13-5.6,3.4-10.1,3.1-14.6,2.2-6.1-1.2-12.1-2.4-18.3-2.5-1.7,0-3.5.1-4.5,1.7s.6,3,1.5,4.3a15.7,15.7,0,0,1,3.2,5.6c2.3,7.8,6.3,14.5,11.1,20.9s9.2,11.8,16.3,15a19.7,19.7,0,0,1,8,6.6,4.8,4.8,0,0,1,0,5.7c-1.6,2.2-3.3.6-4.8-.2a34.6,34.6,0,0,0-14.1-4.3,29.3,29.3,0,0,1-9.2-2.1c-6.5-2.4-13.1-4.6-20.3-4.6-3,0-6-1.6-9-2.5s-8.5-3-12.9-4c-8.7-1.9-11.2-.7-16.1,6.9-3.2,5-3.9,5-8,.8a51.8,51.8,0,0,0-9.6-7.9c-8.7-5.4-16.4-5-24.5,1.3-10.4,8-10.4,8-21.6,1.4-1.9-1.1-3.7-2.5-5.7-3.2C-1273.4,295.5-1275.3,292.8-1275.1,288.5Z" transform="translate(1860.3 -58.7)"/><path class="cls-2" d="M-1681.9,558.3c-.2-3.3-3.8-1.7-5.4-3.9-4.8-6.9-8.7-13.6-7.6-22.4.3-3.1-.2-6.3-.3-9.5-.5-1.3-2.4-2.1-1.6-3.9s1.9,0,2.9-.1,2.1.4,2.3-1.1a1.6,1.6,0,0,0-1.9-1.7c-3.3.4-3.6-1.8-3.7-4.2s-.7-2.3-.9-3.7c.1,1.5.3,2.8-1.1,3.7.5,6.6-3.8,7.7-9,7.6a25.7,25.7,0,0,0-5.5.6c-2.1.4-3.2,1.7-3.5,4.1-.9,8-3.7,14.8-12.3,17.6-.3.1-.3,1.4-.5,2.2-3.1-.6-2.3,2-2.1,3.2,1.5,7.5-2.1,12-8.2,15.7s-10.5,9.1-15.4,14c-2.9,2.8-5.3,3.3-8.1.7-6.6-6.1-13.1-12.3-21.1-16.7a11.6,11.6,0,0,1-4.8-5.4c6.8-4.1,12.5-9.6,18.4-14.8s10.8-6.9,17.7-6.6,7.6-1.3,8.2-7,.2-9.3.3-13.9c-2.9-1.6-3.6-4.1-3.5-7.3.1-1.6,1-3.5-.8-4.9-2.6-5.4-7.6-8.1-12.8-10.5l-1.8-.7c-16.3-6.7-16.3-6.8-15.9-24l.3-10.3c3.3.1,6.6.3,10,.3h14.9c4.8.2,7.9-2.1,9.8-6.3a47.1,47.1,0,0,0,4.1-17.3c.3-4,.3-8.1,1.3-11.9a13.8,13.8,0,0,1,10.5-10.2,37,37,0,0,0,15.9-9c1-.9,3.2-1.8,1.5-3.5s-2.1.9-3.1,1.4-1,.9-1.5,1.3c-5.4-7.2-4.8-13.2,3.5-15.9,13.3-4.4,19.9-13.5,23-26.1.3-1.2,1-2.2,1.3-3.3.7-3.2,2.3-4.3,5.8-4.2a120.3,120.3,0,0,0,15.9-1.2c3-.4,4.3.3,4.1,3.6a23.1,23.1,0,0,0,1.2,8.9c1.4,4.1.1,8.5-3.3,11.9s-7.7,5.9-11.6,8.6a18.1,18.1,0,0,0-7,9.3c-2.8,7.8-7.5,14.8-12.1,21.7-1.8,2.8-4,5.3-5.6,8.2-2.8,4.8-2.7,9.7-.1,14.7a55.1,55.1,0,0,0,12,15.9,39.4,39.4,0,0,1,12.7,21.5c1,4.5,3.7,6.4,7.8,6.9s7.3.5,11,.8a3.3,3.3,0,0,0,2.6-.9c3.4-2.9,8-2.3,10.2,1.4s3.6,7.5,5.5,11.2c4.9,9.2,11.7,15.8,23.2,14.7,2.7-.2,4.3.9,6,3.3s-2.1,2.8-.8,4.5c-2.5,1.8-5.5,2.1-8.3,3a24.3,24.3,0,0,0-11.3,7,37,37,0,0,1-14.3,10.4,29.1,29.1,0,0,0-10.8,7.9c-4.1,4.9-3.4,9,2.5,11.2,3.7,1.4,3.8,3.3,2.8,6.3a33.1,33.1,0,0,1-7.7,13.8c-6.4,6.4-10.9,14.2-15.9,21.6-1.8,2.6-1.9,5.7-2.9,8.4-2.9,8.3-8.1,15.2-13,22.2-2,2.9-9.6.8-11.7-1.6s-1.3-3.7-.4-5.8a1.7,1.7,0,0,0-1.1-2.4,3.8,3.8,0,0,1,0-4c.1-3.9,2-7.3,3.4-10.8,2.9-7.6,5.7-15.1,7.2-23.2s4.9-14,11.9-18.3C-1678.3,559.8-1679.6,558.4-1681.9,558.3Z" transform="translate(1860.3 -58.7)"/><path class="cls-21" d="M-1442.9,197.7c-.1,10.7-8.4,16-14.7,22.7a1.2,1.2,0,0,1-1.7,0c-3.8-3.2-7.9-1.6-11.9-.6a62.3,62.3,0,0,1-14.3,1.9c-7.8.2-14.7-1.5-20-7.9-2.1-2.5-5.2-4.1-7.9-6.1-.7-.6-1.6-.7-2.1.1s0,1.4.6,2c12.3,12.4,26.3,18.5,43.7,12.7,5.4-1.8,9.9-2,13.5,4s8.3,7.1,12.6,10.3c-5.3,9.8-16,13.4-22.7,21.4-1.6,1.9-3.6.7-5.5-.2-8.7-3.8-11.4-2.8-13.4,6.4-1.5,7.2-4.9,13.3-9,19.2-2.9,4.2-4.2,8.4-2.7,13.6a22.8,22.8,0,0,1,.5,9.4c-1.4,9.7-10.3,15.3-18.1,10.1s-19.3-3.5-28.9-5.4c-3.7-.7-6,3.1-8.6,5.3s-3.3,4.1-5.9,2.7-.8-3.6-.7-5.4c.3-8-2.1-10.5-9.8-9.5-2.5.3-3.6-.4-4.3-2.8-2-6.9-2.6-14-2.9-21.2-.2-3.2,1.8-2.2,3.5-2.2,8.3.1,12.9-4,12.2-10.9a6.6,6.6,0,0,0-3.1-5.3c-6.6-4.2-13-8.8-19.5-13.1a14.3,14.3,0,0,0-9-2.2,32.5,32.5,0,0,1-7-.4c-1.1-.2-3-.5-2.8-2.1s1.8-1,2.9-.7,1.8.4,1.9-.8-1.2-2.1-2.2-2.4c-5.8-1.8-11.6-4-17.9-3.9-3.1.1-6,0-8.9-2.2s-2.4.5-1.9,2.3c-2.3-.9-4.9-.8-7.1-2,2.6-3.4,6.1-1.2,9.2-1.5,1-.1,2.5.8,2.6-1.1s-1.5-1.4-2.5-1.4-4.7-.1-7-.1c2-9.2,1.6-19,7.9-26.8.8-.9.6-2.9,2.4-2.7,5.1.4,8.4-2.8,11.9-5.6s7.3-4.2,12.3-3c9.6,2.3,19.6,2.1,29.4,1.3,5.4-.5,9.7-5.1,16.3-.7,3.2,2.1,9.1-2.7,13.4-5.2,16.2-9.7,20.2-25.2,19.5-42.6-.2-5.7,2.2-8.4,7.7-7.3s11,3.3,15.3,7c7.7,6.7,15.2,13.3,18.1,24.1,3.8,13.7,4.4,13.5,18.3,16.6l3.9.8c4.8.8,9.6,1.7,13.3,5.3C-1442.2,193.4-1442.2,195.5-1442.9,197.7Z" transform="translate(1860.3 -58.7)"/><path class="cls-2" d="M-1657,348.6c.2-1.2.3-2.8-1.4-2.3-4,.9-3.7-1.5-4-4.1a18.2,18.2,0,0,1,3.8-13.9c4.6-5.9,7.1-13.1,9.6-20.2.7-2.1,1.4-4,3.5-5.1a18.3,18.3,0,0,1,5.1,7.9c1.9,7.1,8,11.3,11.4,17.4,1.8,3.3,4.4,2.8,6.2-1.1a47.2,47.2,0,0,1,6.2-10.1c3.2-4.1,7.9-4.2,12.8-.6,2.5,1.9,2.6,7.1-.2,10.3-4.4,4.9-7.8,10.4-11.3,15.9s-4.4,8.7-10.6,8.8c-3.1.1-5.1,3-6.2,6-2.2,5.4-4.4,10.7-6.4,16.2s-.8,7.9,4.4,10.6c1,.5,2.1.9,3.1,1.5s5,2.8,4.5,4.7-4.1,2.9-6.3,4.2c-.5.2-.9.3-1-.3s-.8-2.1-2-1.2-.5,1.9-.2,2.8a52.2,52.2,0,0,0,6.1,13.1c1.3,2.1,1.8,3.5.1,6-3.4,4.6-2.9,9.1,1.4,14.1,2.3,2.6,2.8,5.2,2.9,8.5.3,11.2-1.3,22.3-1.5,33.4-.1,5.8,1.4,10.7,5.5,15,2.8,2.8,4.8,6.4,7.7,9.2s-.4,6.2.6,9.3c.3,1-1.6.6-2.5.7-9.8,1-16-4.2-20.6-12-2.1-3.6-3.6-7.5-5.4-11.3s-4.6-6.4-9.4-5.6-7.6-.4-11.5,1.7-10.1-1.4-11.4-6a44.2,44.2,0,0,0-12.9-21.5,62.8,62.8,0,0,1-11.1-14c-3.9-6.4-3-12.1,1.4-17.5,6-7.1,11.2-14.8,14.2-23.3s7.4-11.5,13.3-15.3,10.5-8.3,10.7-15.8c.1-3-.5-5.9-.7-8.9S-1660.4,350.2-1657,348.6Z" transform="translate(1860.3 -58.7)"/><path class="cls-21" d="M-1531,530.8v.4c-.8.3-1.7.3-2.1,1.3,2.5,2.7-2,1.2-2.9,2.1-2.6-.3-3,1.2-7.6-2a1.4,1.4,0,0,0-1.8.8c-.6,1.2-1.2,2.4-2,4.2-9.4-7.7-16.9-3.2-24,3.6a3.7,3.7,0,0,1-2.5,1.2c-12.5,1.3-23-5-27.8-16.7-1.4-3.3-2.8-6.7-5.6-9.2,1.5-1.1,2.4-2.9,4.8-.8s7.5-.5,9.6-4a22,22,0,0,0,2.7-10.6c.2-13.4.2-26.9-2.3-40.3a4.5,4.5,0,0,1,1.2-4.5c1.3-1.3,2.6-2.8,4.2-3.5,9.9-4.5,13.6-12.5,14-22.8.2-3.6,1-7.2,1.6-11.6,5.8,3,11.3,5.5,16.5,8.7,7.9,4.8,16,5.5,24.3,2,5.3-2.2,9.6-2,12.9,3.3.5.9,1.7,1.4,2.7,2s5.9-.3,4.7,3.6,1.4,9.7-4.6,12.7-6.7,5.7-2.3,11.6c1.4,1.9,1.6,3.4.3,5.3-3.4,5.2-3.8,10.3-.9,16s2.8,11.1-1.2,16.4a10.1,10.1,0,0,0-2,8c.9,4.8-1.1,8.3-3.8,11.8S-1531.2,525.9-1531,530.8Z" transform="translate(1860.3 -58.7)"/><path class="cls-21" d="M-1590.2,290.3l6.9-10.4c.6-1,.9-2.5,2.3-2.3s.9,1.9,1,2.9c.7,6.8,1.1,13.6,2.9,20.3,1.2,4.4,3,7.6,8.7,5.9,4-1.2,5.9,1,5.5,5.1-.1,1.9-.1,3.7-.1,5.5.2,4.7,2.7,6.3,7,4.4a8.2,8.2,0,0,0,2.5-1.6c10.8-10.7,22.6-5.6,34.2-2,1.6.5,3,1.6,4.5,2.1s2.6,2,2.6,4.1a99.7,99.7,0,0,1-2.9,27.7c-.7,2.9-2.8,6-.4,9.3.2.3-.2,1.3-.6,1.8-4.3,5.5-8.5,11.6-15.6,13.1s-10.9,3.3-15,7.3-8.4,5-13.4,2.1-11.9-4.1-16.8,2.1c-1,1.2-1.8.7-2.9-.1s-5.5-2.2-8.6-2.1c-7.3.3-14.6.2-21.7-2.1a10.2,10.2,0,0,0-10.6,2.6c-2.5,2.4-3.9,2-6.2-.3s-4.4-2.9-6.8-4.1-3.7-3.3-2.5-6.4c2.2-5.6,4.2-11.2,6.4-16.8,1.2-3,3.4-4.9,6.8-5s4.8-1.5,6.4-3.9c4.7-7.1,8.8-14.5,14.5-20.9,2.5-2.9,2-6.7,2.6-10.3s5.1-4.6,5.1-8.6.2-6.7.2-10S-1592.8,292.9-1590.2,290.3Z" transform="translate(1860.3 -58.7)"/><path class="cls-2" d="M-1845.9,516.3l1.9.3a29.1,29.1,0,0,0,11,0c8.9.4,14-3.6,16.8-12.2s6.4-16.8,7.4-25.8c.6-4.9-.4-9.1-4.1-12.7a46.9,46.9,0,0,1-9.4-13.4c-1-2.1-.6-2.9,1.7-3.2,9.6-1.4,18.9.3,28.3,1.3a3.4,3.4,0,0,1,1.3.5c-.6,5.4,3.1,2,5,2.4s4.1,3.6,3.9,6.6l-.9,13c-.3,6.5,2.5,11.3,8.3,14.1s9.5,4,14,6.5,10.9,5.4,8.2,13.6c-.7,2,.6,5.1,2.5,7.2s3.2,2.2,2.5,4.7a19.4,19.4,0,0,0-.2,3.4c-.7,6.6,1,9.4-8.8,8.7-5.5-.4-10.3,2-14.5,5.5l-16.9,14c-2.3,2.1-3.9,1.9-5.2-1.1-2.2-5-6.7-6.8-11.2-9.6s-11.1-4.5-17-5.6c-3-.5-4.6-3.2-6.9-4.6l-20-12.1c-.4-.9.1-1.4.8-1.7A2,2,0,0,1-1845.9,516.3Z" transform="translate(1860.3 -58.7)"/><path class="cls-21" d="M-1575,416.5c.9.5.9,1.3.8,2.2-.8,5.7-1.9,11.4-2.4,17.2s-3.6,9.7-8.6,12.5c-2,1.2-3.9,2.6-5.8,3.9a8.8,8.8,0,0,0-3.9,9.5c2.4,13.4,1.8,26.9,1.8,40.3,0,2.9-.3,5.8-2,8.1s-2.3,4.8-5.4,1.6-4.6,2.4-6.7-.5,1.9-3.3.7-6-1.8-8.4-2.7-12.6-.6-3-3.2-1.5-1.8-.8-2.5-1.5c-10.7-8.6-10.5-20.2-8.8-32.3.9-6.3-.6-13,1.1-18.8s-1.8-8.4-4.5-11.8-2.9-7.6-.1-11,1.8-4.2.4-6.6-5.2-7-5.1-10.5,5.9-3.7,8.3-6.6c5.1-6.4,11.3-7.9,19-4.8,4.2,1.7,8.8,1.1,13.3,1a54.7,54.7,0,0,1,7,.3c3,.2,4.2,1.8,3.3,4.8,3.7,2.6,5.5,6.5,7.4,10.4s1.5,7-1.6,9.9C-1576.1,414.7-1575.8,415.6-1575,416.5Z" transform="translate(1860.3 -58.7)"/><path class="cls-2" d="M-1636,234.5c2.6-.1,5.6-1.9,7.1,2,3.7,2.2,7.8,2.6,12,2.8s6.2.3,9.1,1.8c.9.5,1.9.2,1.9,1.7,0,5.6,4.5,6.8,8.2,6.5,8-.8,14,2.4,19.9,7.1a66.9,66.9,0,0,0,10.5,6.7c3.3,1.7,3.7,4.4,3.1,7.5a5.6,5.6,0,0,1-6.2,4.7c-3.3-.3-7.6,2.3-9.9-2.8-.8-1.8-2-.1-2.5.7a76.7,76.7,0,0,1-14.4,20.8c-1.1,1.1-1.9,2.5-.4,5.2s1.4,8.8-.2,13.1c-.8,2.4-3.2.3-3.8.5-4.5,1.4-8.5-3.2-12.9-.8s-6.4,7-9.5,10.6a47.5,47.5,0,0,0-3.3,4.6c-4-10.3-10.5-18.2-16.7-26.2-1.3-1.6-.3-2.4,0-3.5a101.5,101.5,0,0,0,3.6-25.7c.4-11.1-3.3-14.8-14.2-15.2h-2.5c-6.8,0-8.5-2.1-7.9-9a2.8,2.8,0,0,1,2.7-2.9,76.9,76.9,0,0,0,23.4-9.5C-1638.1,234.6-1637,234.7-1636,234.5Z" transform="translate(1860.3 -58.7)"/><path class="cls-21" d="M-1485,153.7c-8.1-10.7-18.3-18-32-18.8-3-.1-2.2-4.1-5-3.2-3.6-4.7-7.4-9.3-10.8-14.2-1-1.4-.4-3.6.4-5.3a88.3,88.3,0,0,0,6.3-16.7c.2-.8-.1-2.2,1.6-1.8,6.9,2.1,13.3-1,20-1.9,2.1-.2,4.2-.7,5.4.4.3,6-1.8,11.6-1.9,17.5,1.9.5,2.4,2.2,2.8,3.8s.8,5.1,4,1.6c.4-.5,3.5,1,5.1,2.1,7.4,5,14.9,9.8,22.4,14.8s16.5,6.3,25.6,4.3c3.1-.7,6-1.8,9.1-2.5,4.6-1.1,6.3.3,6.8,5.1s1.5,11.1,2.2,16.7c-.8-.1-1.7-.4-1.9.8a7.1,7.1,0,0,0-.1,2.9c2.9,10.2-1.6,15.9-11,19.1-3.7,1.3-7.4,3.3-9.8,6.7-1.1,1.5-1.8.7-2.8.5-6.3-1.5-12.6-3.1-19-4.2a8.9,8.9,0,0,1-7.2-6c-2.3-5.9-3.3-12.5-6.9-18" transform="translate(1860.3 -58.7)"/><path class="cls-21" d="M-1577,413.6c4.2-2.5,4.5-5.7,2.7-10.1s-5-6.4-6.7-10.1c4.5,1.4,9.8,11.2,9.1,16.6-.2,1-1.6,2.4.1,3s2.1-1.3,2.4-2.4a7.6,7.6,0,0,0-.3-5.9,83.2,83.2,0,0,1-4.1-8.5c-.7-2-4.5-3.6-1.8-6.2s5.7-6.6,10.7-3.6c1.3.8,2.8,1.1,4.1,1.8,5.7,2.9,10.7,2,15.4-2.5s8.3-6.2,14-6.9,9.3-4.8,12.9-8.7,6.6-3.6,5.5-8.4c2.3,1.1,2.7,2.9,3.3,4.6,1.7,4.9,3.2,9.9,5.8,14.3s5.9,6.5,11.4,3.7c3.8-2,7-3.5,7.7,2.7l.3.4c8.2,6.7,5.1,16.4,6.5,24.8.6,3.8-1.4,6.3-4.7,7.5-8.7,3.2-17.6,6.1-26.3,9.2-1.5.5-1.7-.3-2-1.3s-1.1-2.4-2.9-2,1,4.1-2.3,4c-4.4-5-9.4-5.7-15.5-3-7.7,3.4-15.2,2.4-22.6-2.1s-13-6.7-19.6-10.1C-1574.9,413.8-1576.2,414.7-1577,413.6Z" transform="translate(1860.3 -58.7)"/><path class="cls-22" d="M-1590.2,290.3c-1.6,3-3.7,5.8-4,9.4C-1596.5,295-1594,292.4-1590.2,290.3Z" transform="translate(1860.3 -58.7)"/><path class="cls-23" d="M-1657,348.6c-2.1,2-2.1,4.6-2.1,7.2C-1659.2,353.2-1663.3,349.4-1657,348.6Z" transform="translate(1860.3 -58.7)"/><path class="cls-24" d="M-1577,413.6c1.2-.2,2.3-.2,3.1.8a2.3,2.3,0,0,0-1.1,2.1C-1576.7,416.2-1577.4,415.3-1577,413.6Z" transform="translate(1860.3 -58.7)"/><path class="cls-25" d="M-1833,516.6a14.9,14.9,0,0,1-11,0Z" transform="translate(1860.3 -58.7)"/><path class="cls-25" d="M-1846.8,516.3l-1.4,1.5-4.2-1.6a9.2,9.2,0,0,1,5.4-1.7A1.4,1.4,0,0,1-1846.8,516.3Z" transform="translate(1860.3 -58.7)"/><path class="cls-26" d="M-1846.8,516.3c-.1-.6-.1-1.2-.2-1.8,1.5-1.4,3.3-1.1,5.1-.7-1,1.6-4-.4-4,2.5h-.9Z" transform="translate(1860.3 -58.7)"/><path class="cls-21" d="M-1666.3,659.4c-2.8.4-5.5.9-8.3,1.1-4.9.3-5.8-.6-4.3-5.3s2.7-6.7,4.1-10c2.7-6.5,2.2-8.9-2.9-13.6-1.9-1.7-3.6-3.4-4-6s-1-2-2.4-1c.8-3.5,3.4-6,5.1-9,5.2-8.8,6.7-19.4,13.8-27.4,2.7-3.1,4.8-6.7,7.7-9.8a46.3,46.3,0,0,0,5.7-7.5c3.2-4.7,4-10.6,8-15.1a25,25,0,0,1,8.4,8.7c3.8,6.1,9.2,11,12.1,17.7,1.1,2.8,3.4,2.5,5.9,1.6,7.8-3.1,15.1-6.9,19.6-15.4,2,3.1,3.9,5.7,5.3,8.4a80.4,80.4,0,0,1,3.5,9.3c3.4,10.5,12.4,14,22.1,8.6,4.4-2.5,5.5-5.9,3.8-12.1s-1.7-6.5,4.9-5.3,10.3-.1,13.6-7c1.3-2.6,2.4-3,4.9-2.1s6.5,1.6,9.7,2.3c1.2,1.5,0,2.2-1,3-3.4,2.4-7,4.5-10.1,7.2-4.7,4.1-4.7,7.7-.7,12.4a33.2,33.2,0,0,1,3.7,4.7c1.9,3.3,1.8,6.6-1.1,9.4s-4,3.5-6,5.3c-4.2,3.6-6,7.8-3.8,13.2,1.1,2.6,1.9,5-1.3,6.7l-6.7,3.1c-2.6,1.1-5.5,2.2-6.9,4.8-3,5.7-8.2,8.4-13.6,11.1a43.8,43.8,0,0,0-10.5,6.5c-.6.6-1.5,1.4-2.1,1.3-3.9-1-4,1.8-4.5,4.3-1.2,7.5-2.4,15.1-3.8,22.6-.2,1-.1,2.8-1.6,3.1a3.4,3.4,0,0,1-3.6-2c-2.4-4.1-6-7.6-6.4-12.8-.2-2.4-2.2-2.6-4.1-2.5s-4,.5-6,.5c-6.1.2-8.4-1.8-9.2-7.8s-1.5-7-7.6-5.4-12.8-1.7-19.2-2c-2.3-.2-4.6-.9-6.9-.6A3.6,3.6,0,0,1-1666.3,659.4Z" transform="translate(1860.3 -58.7)"/><path class="cls-2" d="M-1688,717.8c-.6-.2-.8.2-1,.7s-4.1.4-6,1.1c-7-.3-13.7-.1-19.9,4.6-3.4,2.6-8.7,2.9-13.1,4.1a38,38,0,0,1-5.8,1.5c-2.4.4-4.6,3.8-6.5,2.3s.6-4.5.3-7.1a44.9,44.9,0,0,1,.6-8.9c1.1-9.8.3-18.8-6.8-26.6a31,31,0,0,1-6.7-11.6c9.1-.4,17-4.1,24.8-7.8,4.8-2.3,6.6-7,7.9-11.6s4-11,8.8-15.1,4.3-8,3-12.5c-.6-2.1-.2-3,1.4-3.9.7,2.8,3,3.1,5.3,3.5s6.8.1,10,2.3c1.6,1.2,3.2-.9,3.8-2.6s1.8-4.4,3.9-5.7c-.7,4.5,2.2,7.1,5.1,9.6s3.5,5.7,2,9.3-3.7,7.9-4.9,12,1,8.3,5.9,7.9c7.6-.6,15-2.9,22.7-1.1.6.1,1-1.4,2.4-.7-1,8.2,2.7,16.3.4,25-1.7,6.8,1.9,12.6,8.4,16,1.7,1,1.3,2.4,0,3.1-3.2,1.8-4.4,4.8-5.6,8-1.9,4.8-4.6,6.2-9.4,4.2s-9.5-2.4-14.2,1.6-8.3.6-12.5-.4l-2.2-.4C-1686.6,718.4-1687.2,718-1688,717.8Z" transform="translate(1860.3 -58.7)"/><path class="cls-21" d="M-1594.9,567.4c-.8-1.6-2.4-3.1-4.4-2.7s-1,2.6-1.5,3.6a25,25,0,0,1-12.5,10.8c-6.8,3-6.4,3-10.3-2.8s-9.4-12.9-14.5-19.1c-2.2-2.7-4.8-5-9.4-3.1-2.3.9-6-1-7.6-3.6s.7-4.3,2.2-6c3.1-3.2,6.9-5.1,10.8-7s9.2-4.9,12.4-9c4.7-6.3,11.9-7.5,18.6-9.7,1.8-.7,3.3.1,4.2,1.8a44.1,44.1,0,0,1,2.8,5.8c5.7,16.7,20.8,18.8,31.9,18.3a3.6,3.6,0,0,0,2.9-1.5c7.1-7.9,11.1-8.5,20-3.4a3.3,3.3,0,0,0,3.7.1c4.9-2.7,10.2-2.5,15.6-2.3,2.9.1,3.1,1.5,2.8,3.8-1.7,10.3-1.7,10.3,3.9,19.4-10.5-1.8-20.5-2.9-24.5,9.8-2.5,3.3-5.5,4.7-9.9,3.6a13,13,0,0,0-7.3.2c-2.9,2.1-1.8,4.7-1.1,7.2,2.2,7.9,1.3,10-5,11.9-7.8,2.3-12.7.3-14.7-6.5a135.7,135.7,0,0,0-5.7-14.2" transform="translate(1860.3 -58.7)"/><path class="cls-27" d="M-1703,613.5v4C-1704.6,616.2-1703.8,614.8-1703,613.5Z" transform="translate(1860.3 -58.7)"/><path class="cls-21" d="M-1648,834.5l-3-2c1.7-3.1,1.2-6.2-.2-9.1a65.1,65.1,0,0,0-16-21.5c-3.9-3.4-8.1-4.3-12.9-1.9l-5.9,2.6a11.5,11.5,0,0,1-11.3-1.1c-5.2-3.5-10.8-6.9-16.8-8.6s-10-6.7-13.5-11.7-5.7-5-9.5-2c-7.8,6-15.5,12.2-22.9,18.5-1.9,1.5-3.1,2.1-5.2.9a38.1,38.1,0,0,0-5-2.3c-6.5-3.3-7.4-7.2-3.3-13.2,2-2.8,4.7-4.7,7.3-6.8,6.7-5.5,6.5-7.9-1-12.5-2.5-1.6-5.1-3-7.7-4.6-7.5-4.9-7.9-11.8-1.2-17.7,1.4-1.3,2.4-1.4,3.6.1s2.1,2.2,3.2,3.2c5.4,4.8,7.7,4.7,13.3.3a55.8,55.8,0,0,1,14.5-8.5c7.3-2.8,14.3-6.7,22.2-7.9a3.7,3.7,0,0,0,1.4-.4c9.6-6.8,20.5-6.4,31.4-5.7a13.5,13.5,0,0,0,3.4.6c1,.8.7,2,1.1,3,2.1,1.9,3.6.4,5-1l6.8-6.5c2.9-3,6.1-3.7,9.9-2l4.6,1.9c3.4,1.1,6,.1,7.4-3.1s2.7-8.2,7.2-10.2c.9-.5,1.6-2.4,1.2-3.9-7.4-4.8-9.7-11.2-7.3-19.7,1.5-5.2.8-10.6.2-15.9-.2-2.2,0-3.6,2.8-3.3a13,13,0,0,0,3.4-.2c2.5-.3,5.2-1.5,7.4-.8s1,4.4,1.9,6.6c2.1,4.9,5.1,7.1,12.1,6.6,4.6-.3,7.4.1,8.6,5.4.7,3.2,3.4,6,5.5,8.9s1.3,3.3,0,5.3c-2.7,4-6.2,7.4-8,12s-1.9,7.4-.2,11.1a50.2,50.2,0,0,1,3.7,26.3,47.4,47.4,0,0,0,2.4,21c3,8.5,1.2,17.4-1.4,26.4s-7.4,13.1-16.8,11.8c-2.1-.2-4.2,1.1-6.4,1.2s-2.2,1.9-2,3.5a2.1,2.1,0,0,0-.4.6c-2.2,3-1.3,6.5-1.3,9.7,0,7-3.6,11.9-8.7,16.1C-1645.4,834.8-1646.6,835.5-1648,834.5Z" transform="translate(1860.3 -58.7)"/><path class="cls-1" d="M-1517.1,727.4c-3.5,6-9.4,10-13.7,15.3-1.2,1.5-2.3,3.2-3.4,4.7-4.8,6-5.9,13.4-6.7,20.6-1.7,14-2.9,27.9-9.8,40.8-2.2,4.2-4.1,9.2-2,14.6.6,1.8-1.4,2.1-3,2.3a46,46,0,0,0-12.5,3.2c-4,1.7-6,4.5-6,8.8,0,1.5-.2,3-.1,4.5.2,5.1-1,8.9-5.8,12.1s-10.3,9-14.9,14c-2.7,2.9-5.7,4.1-8.6,2-7.3-5.3-15.7-5-24-5.8-5.4-.5-8.4-3.2-9.6-8.9s-3-13.7-7.9-19.1c-.5-1.6.5-2.6,1.6-3.4,5.2-4,7.5-9.5,8.7-15.7.6-1.6.4-3.3.5-4.9.1-3.6,1.4-5.5,5.2-4,1.7-3,4.6-3,7.6-3.1,9.3-.1,9.6-.6,13.3-9.4s6-18.3,4.3-28.1c-.2-.7,0-1.4-.3-2-5-8.5-3.2-17.7-2.8-26.7a48.8,48.8,0,0,0-3.8-22c-2.7-6.6-1.3-10.5,4.8-14.6.9-.6,2.4-.9,1.2-2.5s1.9-2.9,1.7-5c1.8.8.8,4.1,3.2,3.2s0-2.5.3-3.4,2.6-4.6,3.4-7a80.4,80.4,0,0,0,3.3-20.1c.3-4.8,3.1-6.7,7.2-7.3s8.8,2.2,9.4,6.3c1.4,10.2,7,17.7,14.8,23.9,6.2,4.9,9.5,4.9,15.3-.3a5.4,5.4,0,0,1,3.8-1.9c3.2-.2,6.5-.2,9.4-1.4,6.6-2.6,13.3-.3,19.9-.6,1.8-.1,2.4.6,2,2.3l-.3,1.5C-1515.5,702.3-1518.3,714.6-1517.1,727.4Z" transform="translate(1860.3 -58.7)"/><path class="cls-28" d="M-1639.9,701.4c.8,2.7,1.3,5.2-2.5,6.3s-2.7,3.4-3.5,5.5c-2.6,7.3-5.1,8.5-12.3,5.8s-7.8-3-13.9,3.3a37.8,37.8,0,0,1-5.5,5.1c-2,1.5-4.4,2.6-6.2-.6,1.1-1.7,3.3-1.5,4.7-2.8a1.6,1.6,0,0,0,.4-2.3c-3.3-.8-8,1.8-9.3-3.9h1.7c.8.5,1.7.8,2.4-.1,5.4,1.7,10.4,3.4,15.3-1.8,2.9-3,6.9-1.1,10.3.2,7.1,2.8,8,2.5,10.2-4.9a8.7,8.7,0,0,1,5.1-6.2c1.1-.5,2.4-.9,1-2.4C-1641.2,702.4-1640.3,702.3-1639.9,701.4Z" transform="translate(1860.3 -58.7)"/><path class="cls-29" d="M-1629.1,808.5c-2.9-.4-4.1.8-4,3.9s.8,4.3-.8,6.1c-2.4-3.7-2.3-7.3-.1-11h0C-1632.3,807.7-1630.5,806.9-1629.1,808.5Z" transform="translate(1860.3 -58.7)"/><path class="cls-30" d="M-1666.3,659.4l3.3-2.8c-.2,2.2,2.2,1.5,3.1,2.8Z" transform="translate(1860.3 -58.7)"/><path class="cls-31" d="M-1514.5,683.9c-1.4,1-2.4.4-4,.5C-1517,683.1-1515.9,683.6-1514.5,683.9Z" transform="translate(1860.3 -58.7)"/><path class="cls-32" d="M-1695,719.6c1.8-1.7,4-.7,6-1.1" transform="translate(1860.3 -58.7)"/><path class="cls-28" d="M-1683,723.5l-3.5-.9h7.5a1,1,0,0,1-.3,1.4A2.9,2.9,0,0,1-1683,723.5Z" transform="translate(1860.3 -58.7)"/><path class="cls-33" d="M-1679,722.5a.7.7,0,0,0,.3-.8c2.9.3,1.8,1.6.7,2.8" transform="translate(1860.3 -58.7)"/><path class="cls-34" d="M-1498.2,106.6a.7.7,0,0,1-.6.2c.3-1.7.6-3.5,1.1-6.1C-1496.8,103.4-1496.5,105.1-1498.2,106.6Z" transform="translate(1860.3 -58.7)"/><path class="cls-35" d="M-1634,807.5v11c-.9,7.8-5.7,13.1-11.2,18l-2.9-2c5.6-3.4,10.2-7.6,10.8-14.6.3-3.2.4-6.5.6-9.8C-1636.5,808.5-1636.7,806.4-1634,807.5Z" transform="translate(1860.3 -58.7)"/><path class="cls-2" d="M-1709.3,582.5c.2,1.1-.7,1.5-1.3,2-6,5.1-10,12.2-16.3,17.1a22,22,0,0,0-5.7,7.5c-6.1,11.6-4.8,10.5-18.1,13.1a206,206,0,0,1-1.6-20.7c-.1-4.5,1.6-8.5,5-10.9,11.2-7.9,23-13.9,37.4-8.7C-1709.7,582-1709.5,582.3-1709.3,582.5Z" transform="translate(1860.3 -58.7)"/><path class="cls-36" d="M-1699.2,511.5c-.3-2.6-.9-5.2.7-8,2.3,2.7,1.2,5.4,1.3,8Z" transform="translate(1860.3 -58.7)"/><path class="cls-37" d="M-1610.1,196.4l2,1.5c4.4,3.6,9,6.8,12.9,11,2,2.1,3.9,3.1,6.8.9s8.9-1.8,13.5-.8c7.1,1.6,14.3,2.9,21.6,3.8a21.2,21.2,0,0,0,14.3-3,106.2,106.2,0,0,1,10.3-6c1.9-.9,4.1-1.8,6.3-.9s3.5.6,2.9,2.5-2.1.1-3.2,0-4.8,0-6.7,1.6c-12.2,10.5-26.1,9.7-40.5,5.9l-8.2-1.9c-2.8-.5-5.8-1.1-8.3.7-4.5,3.3-7.9,1.6-11.4-1.6s-8.4-7.1-12.6-10.7c-.6-.5-1.9-1-1-2.3S-1610.6,196.7-1610.1,196.4Z" transform="translate(1860.3 -58.7)"/><path class="cls-38" d="M-1564,346.4l-1.3-1" transform="translate(1860.3 -58.7)"/><path class="cls-39" d="M-1686.3,717.7h2.4c-.5.9.5,2.7-1.2,2.8" transform="translate(1860.3 -58.7)"/><path class="cls-40" d="M-1450.4,363.1s-.1-.1-.1,0h.1Z" transform="translate(1860.3 -58.7)"/><path class="cls-40" d="M-1625.3,428.7h0Z" transform="translate(1860.3 -58.7)"/><path class="cls-41" d="M-1631.5,400.6c.6-1.3.9-3,2.6-3.5h0a66.3,66.3,0,0,1,3.9,10.5c1.3,4.2,2.3,8.4,3.5,12.6a25.4,25.4,0,0,0,1.6,3.8c1.4,2.5,2.7,2.7,4.9,1,1-.1,1.2-1,1.6-1.7a39.8,39.8,0,0,1,5.3-7.1c.9-.8,1.8-1.7,3.2-.9h0c1,0,1.4.7,1.9,1.3s1.4,1.7,2,2.6c2.8,4.9,7.3,5.6,12.4,4.7l2.5-.6h0a20.1,20.1,0,0,0,6.8-3.9c4.7-4.2,9.6-3.8,13.4,1.3,2.9-2,4.9-4.7,7.3-7.1h0a91.4,91.4,0,0,0,20.2-36.4,15.5,15.5,0,0,0,.4-2.1l-31.5-6c-12-2.3-24.1-4.7-36.2-6.9l-42.1-7.9a165.6,165.6,0,0,0-4.9,40.1,169.2,169.2,0,0,0,4.5,38.6,83.3,83.3,0,0,0,9.6-15C-1635.9,412.4-1633.9,406.4-1631.5,400.6Zm22.2,1.7a82.1,82.1,0,0,1,19.6,3.9h.4c.7.4,1.9.4,1.7,1.4s-1.2.6-1.9.6-4.3-.1-6.3-.4a93.5,93.5,0,0,1-18.2-3.8,5,5,0,0,1-2.6-1.5C-1614,401.3-1611.6,402.1-1609.3,402.3Z" transform="translate(1860.3 -58.7)"/><path class="cls-41" d="M-1636,350.7c3.6,1.4,6.9,3.3,10.4,4.9a16.6,16.6,0,0,0,3.1,1.2c2.3.5,3.4-.3,3.6-2.7s1.2-3.8,4.3-2.6l6.6,3.3a14.5,14.5,0,0,0,11,1.2c7.2-2,10.2-.9,15.1,4.9a29.9,29.9,0,0,1,.9-3.2c2.8-8.5,12.6-11.2,19.3-5.2,2,1.8,3.4,3,6.4,1.8s6.4.7,9.1,2.7a5.2,5.2,0,0,1,1.1,1c3,3.3,6.3,5.9,11,6.1h0c.8-3,2.7-5.6,3.3-8.7.3-1.4,1.5-2.6.6-4.3s.4-1.5,1.2-1.6a1.1,1.1,0,0,1,1.1,1.3.9.9,0,0,0,.4.9h0l3.1,3c.7.8.2,1.5-.4,2.1l-.3.4h0c-1,1.2-.5,3-1.9,3.9.4,2.3.9,4.5,1.3,6.8s.4,1.8-.5,2.5l-.3,2.4h0l1.1.2h0c8.1-8.3,15.4-17.3,20.8-27.6a120,120,0,0,0,4.7-12l1,1.6c2.4,3.9,4.9,4.2,8,.8s5-8.8,6.3-13.7,1.3-8.2,2.6-12.1a10.1,10.1,0,0,1,1.3-3c1-1.8,1.9-1.9,3.6-.5l1.6,1.8c2-5.5,5.4-8,11.4-6.6,2.2.6,4.7.1,7-.4.7-.2,1.7-.3,1.9-1.2s-.9-1.4-1.6-1.8a39.3,39.3,0,0,0-8.4-2.7c12.3-11.2,35.1-10.9,47.6,3.4h-10.6a40,40,0,0,0-10.8,1.4c-1.4.4-3.2.7-3.5,2.5s1.5,2.6,2.8,3.3c5.8,3.1,12.1,4.5,18.4,5.9,3.5.7,7,1.5,10.6,1.9,2,.2,2,1.5,2.2,2.8s-.7.9-1.3.9a24.3,24.3,0,0,0-6,1c-.9.2-2.1.4-2.2,1.5s1.2,1.5,2.1,1.8a20.5,20.5,0,0,0,5.9,1.5c1.7.1,2.2.8,2,2.5-1.7,12.8-7.9,22.4-19.5,28.4-.4.2-1.2.3-.6,1,4.3,1.7,8.7,3.3,13.5,2.6,3.3-.4,6.4-1.5,9.7-1.8,6.6-.7,11.8,1.7,15.5,7.2.3.4.5,1.1,1.2,1.3.4-1.7.7-3.4,1.2-5,4.2-12.9,17.8-15,26.6-9.5a27.8,27.8,0,0,1,6,5.3c.5.6.7,1,1.6.6,7.5-3.7,13.7-1,19.3,4,2,1.7,3.8,3.6,5.8,5.4a12,12,0,0,0,5.3,2.9,168.7,168.7,0,0,0-9.8-35.6l-6.6-1.3a24.1,24.1,0,0,1,5.2-2c-1.3-3.2-2.8-6.4-4.4-9.5a62.8,62.8,0,0,1-7-2.2c-.6-.3-1.6-.5-1.5-1.3s1.2-.8,1.9-.8a34,34,0,0,1,4.5.3,166.1,166.1,0,0,0-146.4-87.7,165.7,165.7,0,0,0-124.9,56.5,22.3,22.3,0,0,1,7.1,10.9c.9,3.6,1,3.5,4.6,3.8,8.6.7,16.6,2.9,23.3,8.7a25.7,25.7,0,0,1,6.1,7.9l-12.8-2.4-43.8-8.2a167.5,167.5,0,0,0-19.6,44h.8A20.3,20.3,0,0,1-1636,350.7Zm89.8-58.4h1.4a37.3,37.3,0,0,1,9.8,2.1c.6.2,1.4.4,1.2,1.1s-1.1.7-1.8.7a32.6,32.6,0,0,1-11-2.2c-.5-.2-1.5-.4-1.4-1.1S-1546.9,292.4-1546.2,292.3Zm-47.2-1.1c-1-.5-2.7-1-2.4-2.2s2-.9,3.1-1a16.1,16.1,0,0,1,2.2,0,70.7,70.7,0,0,1,21.4,4.2l1.7.8c.9.5,2.1.8,2,1.9s-1.6,1-2.6,1A65.1,65.1,0,0,1-1593.4,291.2Z" transform="translate(1860.3 -58.7)"/><path class="cls-42" d="M-1343.6,474.1c-1.1.6-2.6.3-4,.4.9,1.1-.2.8-.6.8-2.3-.3-4.5-.5-6.7-.9-8-1.2-15.9-2.9-23.2-6.5a16.4,16.4,0,0,1-2.2-1.4c-.5-.5-1.5-1-1.2-1.9a2.5,2.5,0,0,1,2.3-1.5h8.5a13.1,13.1,0,0,1,2.2.5l-2.3.6c-.9.2-1.8.4-2,1.4s.7,1.5,1.3,2.1a17.5,17.5,0,0,0,6.1,2.7c4.7,1.4,9.4,3.2,14.4,3.5-5.1-2.2-9.7-5.4-14.9-7.3-.7-.2-1.6-.6-1.6-1.5s.6-.8,1.1-.8a19.3,19.3,0,0,1,18.5-1.3,9.8,9.8,0,0,1,4.7,4.3h0a31.6,31.6,0,0,1,5.3,1.3,168.8,168.8,0,0,0,10.5-26.4q-9.1-.7-18.3-2.1c-38-5.2-74.9-14.5-110.4-29.3l-.9-.5h0l-4.4-1.8h0a331.2,331.2,0,0,1-38.9-19.9h0l-17.9-10.7-9.1-4.4-1.1-.3h0c-2.2.2-2.4.6-1.4,2.5,1.9,3.5,4.5,6.5,6.8,9.6a49.2,49.2,0,0,1,5.4,8.3c1.6,3.5,1.1,4.7-2.7,5.4l-1,.2c-.8.3-1.8.5-1.9,1.3s.7,1.3,1.3,1.7l6.5,4a14.3,14.3,0,0,1,4.7,3.8c1.6,2,1.5,3.7-.3,5.4s-5,3.2-7.8,4.3a42.7,42.7,0,0,0-9.6,4.7,17.1,17.1,0,0,0-2.5,2.2c-1.9,2.1-1.8,4,.1,6.2s5.6,3.9,8.8,5.1c8.2,3.1,16.8,4.7,25.5,6.2s17.4,3.5,25.5,7.3a24,24,0,0,1,7.8,5.1c3.3,3.4,3.4,6.9.2,10.4-1.1,1.2-2.5,2.2-3.6,3.4-2.7,2.7-2.3,4.1,1.2,5.2a113.3,113.3,0,0,0,11.6,2.3,496.1,496.1,0,0,1,57.8,12.6,42.6,42.6,0,0,1,11.7,5.3c7.4,5.1,9.3,11.9,5.4,20a44.5,44.5,0,0,1-8.9,12.2,174.3,174.3,0,0,0,17.3-14.7l.6-2.1c1.3-6.3-1.2-11.1-6.1-14.9a43.9,43.9,0,0,0-15.2-7,529.5,529.5,0,0,0-52.8-11.8c-4.8-.9-9.8-1.6-14.5-3.1s-4.3-2.7-1.3-5.7l3.7-3.7c2.8-3.4,2.6-6.8-.4-10s-7.2-5.1-11.3-6.8l-2.5-1c5,.4,15.6,5.9,18.5,9.6s2.6,6.2.3,9.4c-.8,1-1.7,2-2.4,3s-1.2,3.6,1.3,4.7a32.7,32.7,0,0,0,7,1.8c20.9,3.6,41.8,7.5,62.4,12.7,6.3,1.6,12.4,3.6,17.8,7.1a25.9,25.9,0,0,1,6.4,5.4,171.5,171.5,0,0,0,18.6-27.4A6.1,6.1,0,0,0-1343.6,474.1Zm-123.3-56c-.4.5-1.1.3-1.7.2a41.1,41.1,0,0,1-10.2-4.7c-4.7-2.7-9.4-5.3-13.2-9.1l-1.8-1.9c-1.2-1.2-.8-1.9.6-2.3,6.1-1.8,14.9,3,16.6,9h0l6.9,5.2a14.7,14.7,0,0,1,2.2,2.1C-1467.1,417-1466.5,417.6-1466.9,418.1Zm34.9,30c-1.1.5-2.5.7-5.2.7a45.1,45.1,0,0,1-22.7-7.5,13,13,0,0,1-3.1-3.1c-1.4-2-.9-3.6,1.4-4.5a15.6,15.6,0,0,1,7.1-.4,43.9,43.9,0,0,1,19.6,6.9,11.8,11.8,0,0,1,4.1,3.9C-1429.8,445.8-1430.3,447.2-1432,448.1Z" transform="translate(1860.3 -58.7)"/><path class="cls-43" d="M-1589.3,502.7a1.7,1.7,0,0,0-.3-2.1c-.7-.6-1.4-.1-2,.2a43.5,43.5,0,0,0-6,4.3c-.6.4-1.2,1.1-2,.5s-.2-1.2-.1-1.8a44.5,44.5,0,0,1,3.4-8.8c5.1-10.7,10.8-21.1,16.6-31.5,1.3-2.2,2.5-4.4,3.7-6.6a2.2,2.2,0,0,0,.3-2.1c-2.7,2.3-4.7,5.2-6.9,7.9-5.1,6.2-10,12.6-15.4,18.6l-.9,1c-.5.5-1.1,1.1-1.9.7s-.5-1.3-.3-2a36.3,36.3,0,0,1,2.9-8.4,119,119,0,0,1,13.2-22.3,56,56,0,0,1,15.4-14.1,24.8,24.8,0,0,0,2.6-1.9c2.7-2.1,5.1-4.3,5.2-8.1s1.5-7.3,3-10.7c.3-.5,1-1.2.2-1.9h0c-2.4,2.4-4.4,5.1-7.3,7.1a85.6,85.6,0,0,1-22.3,15,91.1,91.1,0,0,0-14.9,8.5h0c-10.8,8.6-20.1,18.7-30.3,27.9a167,167,0,0,0,36.3,46.3c2.2-3.8,4.3-7.5,6.2-11.4C-1590.3,505.6-1589.8,504.1-1589.3,502.7Z" transform="translate(1860.3 -58.7)"/><path class="cls-43" d="M-1444.3,550.5c0-1.7.1-3.5,0-5.2-.1-4-2.1-5.3-5.7-3.7a21.6,21.6,0,0,1-4.3,1.4c-1.8.3-2.7-.4-2.7-2.2a9,9,0,0,1,1.4-4.8c1-2,2-4,2.9-6.1.2-.4.6-1,.1-1.4s-1,.1-1.4.4c-3.7,2.5-7.1,5.5-11,7.8s-9.6,5.4-15.1,6.5a18.2,18.2,0,0,1-5.7.3c-2.9-.3-4.4-2.5-3.8-5.4,1.1-5.1,3.8-9.4,6.5-13.8s4-6,5.8-9.2c-4.8,2.8-8.7,6.7-13.3,9.7,9-11.6,19.8-21.9,26.7-35.1-5.9,5.4-10.9,11.8-16.5,17.6h0c-8.1,8.6-17,16.2-28,20.9a30.6,30.6,0,0,1-10.8,2.2c-1.4.1-3,.2-3.7-1.3s.2-2.8,1.2-3.9c1.9-3.5,5.4-5.2,8.1-7.8s6.1-5.2,9-7.9c8.3-7.7,16.1-15.8,22.1-25.5a39.3,39.3,0,0,0,3.4-6.8,4.9,4.9,0,0,1,1.1-2.3c1.6-2.3,4.1-3.7,6-5.7s2.2-2.5,1.9-4.4h0c.3-3.6-2.4-5.2-4.7-6.9a33.3,33.3,0,0,0-8-4h-.4c.1,4.3-1.4,8.3-2.7,12.3a116.6,116.6,0,0,1-8.1,19.7,108.8,108.8,0,0,1-12.6,19.1c-.8,1-1.2,2.6-2.9,2.7l-.4.4h0c0,1.6-.5,2.6-2.2,2.6-3.3,2.8-6.2,6-9.4,8.8a41.9,41.9,0,0,1-22.9,10.4,4.5,4.5,0,0,1-3.6-.4c-4.5,0-6.6-2.9-5.3-7.2,1.7-5.9,4.7-11.3,7.3-16.8.6-1.3,1.1-2.5,1.6-3.8s.4-.9,0-1.2-.9,0-1.2.3-1,1-1.6,1.4-.9.7-1.4.3a1.2,1.2,0,0,1-.1-1.4,41,41,0,0,1,2.1-4.8c3.8-7.7,7.7-15.4,11.1-23.3a1.2,1.2,0,0,0,.1-1.3c-1.6,2.3-3.2,4.7-4.7,7.1-7,11.3-14.1,22.6-22.4,33a48.4,48.4,0,0,1-8.1,8.2c-.5.4-.9,1-1.5.5s-.3-1-.1-1.6a31.9,31.9,0,0,1,3.2-6.4c2.3-4.8,5.3-9.1,7.5-14h0c-1.8.2-2.5,1.8-3.5,2.9-3.7,4-7.2,8-10.8,12l-11.6,13a165.4,165.4,0,0,0,100.9,34.1,170.5,170.5,0,0,0,41.3-5.1l.9-4.9Z" transform="translate(1860.3 -58.7)"/><path class="cls-44" d="M-1332.2,332.8l-1.4-3.3a24.1,24.1,0,0,0-5.2,2Z" transform="translate(1860.3 -58.7)"/><path class="cls-45" d="M-1384.3,495.8a42.6,42.6,0,0,0-11.7-5.3,496.1,496.1,0,0,0-57.8-12.6,113.3,113.3,0,0,1-11.6-2.3c-3.5-1.1-3.9-2.5-1.2-5.2,1.1-1.2,2.5-2.2,3.6-3.4,3.2-3.5,3.1-7-.2-10.4a24,24,0,0,0-7.8-5.1c-8.1-3.8-16.8-5.8-25.5-7.3s-17.3-3.1-25.5-6.2c-3.2-1.2-6.4-2.6-8.8-5.1s-2-4.1-.1-6.2a17.1,17.1,0,0,1,2.5-2.2,42.7,42.7,0,0,1,9.6-4.7c2.8-1.1,5.6-2.1,7.8-4.3s1.9-3.4.3-5.4a14.3,14.3,0,0,0-4.7-3.8l-6.5-4c-.6-.4-1.4-.9-1.3-1.7s1.1-1,1.9-1.3l1-.2c3.8-.7,4.3-1.9,2.7-5.4a49.2,49.2,0,0,0-5.4-8.3c-2.3-3.1-4.9-6.1-6.8-9.6-1-1.9-.8-2.3,1.4-2.5h0a5.3,5.3,0,0,0,.1-1.3h0a4.5,4.5,0,0,0-2.7-1.2,3.9,3.9,0,0,1-3,.2c-.4,0-1-.1-.9-.7s.6-.3,1-.5c-2.3-.8-2.7-.5-3.1,1.8,2.6,7.2,7.5,13.2,10.5,20.3a7.7,7.7,0,0,1,.7,1.6c1.2,3.7.5,4.9-3.4,5.7-1.1.3-3.4.1-2.1,2.6h0l6.5,4a24.8,24.8,0,0,1,4.5,3.3c2.9,2.9,2.7,5.1-.6,7.5s-7,3.3-10.5,4.8a32,32,0,0,0-5.2,2.7c-4.4,2.4-4.3,6.7-4.8,10.8a208.3,208.3,0,0,1-6.5,30.2,212.3,212.3,0,0,1-12.2,31c-.4.8-.9,1.6-1.4,2.4h0c-2.2,4.9-5.2,9.2-7.5,14,1,.4,1.2-.6,1.6-1.1a177,177,0,0,0,26.1-47.4,138.1,138.1,0,0,0,6.5-24.7c.2-1.2.3-2.3,2.2-1.4,8.1,3.9,16.9,5.6,25.7,7.2,10.4,1.8,20.6,4.1,30,9a23.1,23.1,0,0,1,6.3,5.3c1.7,1.9,1.8,3.9.5,5.4h0c.3,1.9-.8,3.1-1.9,4.4s-4.4,3.4-6,5.7c1.6,2.6,4.5,2.5,7,2.9,19,3,37.8,6.6,56.5,11.2,6.6,1.7,13.3,3.1,19.4,6.5,4.3,2.4,7.9,5.4,9.1,10.6s-.4,8.2-2.5,11.8a64,64,0,0,1-15.5,17.3,118.3,118.3,0,0,1-9.8,7.7c-.6.4-1.1,1.3-2.1.7h0l-4.3,3.2a171.1,171.1,0,0,0,32.4-18.8,44.5,44.5,0,0,0,8.9-12.2C-1375,507.7-1376.9,500.9-1384.3,495.8Z" transform="translate(1860.3 -58.7)"/><path class="cls-46" d="M-1348.5,436.8h0c-8.1-.6-16.1-2-24.1-3.3-5-.8-10.1-1.9-15.1-2.8l-1.4-.5h0c-2,.1-3.8-.7-5.7-1.3s-5.8-1-7.4-4.4a95.9,95.9,0,0,0-8.9-14.7,32.5,32.5,0,0,0-2.3-2.9c-.4-.5-.8-1.3-1.5-1s-.5,1.2-.5,1.9.1,3-.1,4.5-1.3,2.4-2.9,1.5a11.9,11.9,0,0,1-3.9-3.5,75.7,75.7,0,0,1-7-10.7l-3.1-5.3c-1.1-1.2-1.7-.8-1.8.7-.2,3-.2,6-.3,8.9s.2,3.8-1.6,4.5-3.1-1.3-4.2-2.6c-3.2-3.8-5.2-8.4-7.3-12.9s-3.1-6.9-4.9-10.3c.1,3.6,1.1,7,1.8,10.4s1,5.3,1.4,8c.2.9.6,2.2-.5,2.5s-1.3-1.1-1.7-1.9c-2.9-6.1-4.8-12.5-6.8-18.9a10.6,10.6,0,0,1-.4-1.9c-1-2.9-1.9-5.9-2.9-8.8h-.5c.1,12.9,2.3,25.7,5.1,38.3l.9.5c35.5,14.8,72.4,24.1,110.4,29.3q9.2,1.4,18.3,2.1l.9-3.2c-4.7-.4-9.5-.8-14.2-1.4C-1343.3,437.4-1345.9,437.3-1348.5,436.8Z" transform="translate(1860.3 -58.7)"/><path class="cls-47" d="M-1365.4,495.5c-5.4-3.5-11.5-5.5-17.8-7.1-20.6-5.2-41.5-9.1-62.4-12.7a32.7,32.7,0,0,1-7-1.8c-2.5-1.1-2.8-2.4-1.3-4.7s1.6-2,2.4-3c2.3-3.2,2.2-6.4-.3-9.4s-13.5-9.2-18.5-9.6l2.5,1c4.1,1.7,8.2,3.4,11.3,6.8s3.2,6.6.4,10l-3.7,3.7c-3,3-2.7,4.5,1.3,5.7s9.7,2.2,14.5,3.1a529.5,529.5,0,0,1,52.8,11.8,43.9,43.9,0,0,1,15.2,7c4.9,3.8,7.4,8.6,6.1,14.9l-.6,2.1c2.7-2.7,5.4-5.4,7.9-8.3a24.3,24.3,0,0,0-9.4-10.6l-.9-.6a2.5,2.5,0,0,0-.2-.6c5.2,2.4,9.7,5.2,12.8,9.2l1.3-1.5A25.9,25.9,0,0,0-1365.4,495.5Z" transform="translate(1860.3 -58.7)"/><path class="cls-44" d="M-1570.3,316.1a25.7,25.7,0,0,0-6.1-7.9c-6.7-5.8-14.7-8-23.3-8.7-3.6-.3-3.7-.2-4.6-3.8a22.3,22.3,0,0,0-7.1-10.9,174.4,174.4,0,0,0-15.5,20.7l43.8,8.2Z" transform="translate(1860.3 -58.7)"/><path class="cls-48" d="M-1637.1,458.9c5.2-1.4,9.8-4.3,14.3-7s6.4-4.1,9.6-6,6.6-2,10.1-1.7h0a91.1,91.1,0,0,1,14.9-8.5,85.6,85.6,0,0,0,22.3-15c-3.8-5.1-8.7-5.5-13.4-1.3a20.1,20.1,0,0,1-6.8,3.9h0c-1.2,1.7.6,2.5,1.2,3.5a1.7,1.7,0,0,1-.2,2.7c-4,3.6-12.7,4.1-17,1-1.6-1.1-2-3-3-4.5-1.2,2.9,0,5.8-.4,8.7a34,34,0,0,1-2.5-8.4h0a6.1,6.1,0,0,1,0-4.4,11.3,11.3,0,0,1,3.1-6.6h0c-1.4-.8-2.3.1-3.2.9a39.8,39.8,0,0,0-5.3,7.1c-.4.7-.6,1.6-1.6,1.7a39.3,39.3,0,0,0-2,5.4,11.1,11.1,0,0,0,.4,6.2c-1.6-1.2-1.8-3.2-3.2-4.2a1.1,1.1,0,0,0-.3,1.3c.3.8.5,1.7-.3,2.1s-1.5-.5-2-1.1-2.1-3.7-2.8-6h-.1c-.4,1.4-.1,4.7.6,7s1.4,4.3,2.2,6.5c-2-2.1-4-4.2-5.1-6.9s-2.8-7.1-2.5-11.1a8.4,8.4,0,0,0-.5-3.1c-.2-.8-.7-.6-1,0a30.5,30.5,0,0,1-1.9,3c.8-9.1,1.7-18.3,4.6-27h0c-1.7.5-2,2.2-2.6,3.5-2.4,5.8-4.4,11.8-7.1,17.4a83.3,83.3,0,0,1-9.6,15,175.7,175.7,0,0,0,8.5,26A5.8,5.8,0,0,0-1637.1,458.9Z" transform="translate(1860.3 -58.7)"/><path class="cls-49" d="M-1603.1,444.2c-3.5-.3-7-.2-10.1,1.7s-6.3,4.1-9.6,6-9.1,5.6-14.3,7a5.8,5.8,0,0,1-2.6.1c1.9,4.4,4,8.8,6.3,13.1,10.2-9.2,19.5-19.3,30.3-27.9Z" transform="translate(1860.3 -58.7)"/><path class="cls-50" d="M-1408.2,527.8a68.6,68.6,0,0,0,8.9-25.6c.2-1.5,0-3.1.1-4.6-3.2-2.3-7-3.3-10.7-4.4-1-.3-1.5-.1-1.6,1.2-1.3,15.6-7.4,29.3-17.1,41.5a94.1,94.1,0,0,1-14.7,14.2,2.3,2.3,0,0,1-1,.4l-.9,4.9a162.6,162.6,0,0,0,19.4-6.3A90.1,90.1,0,0,0-1408.2,527.8Z" transform="translate(1860.3 -58.7)"/><path class="cls-51" d="M-1373.1,493.2a2.5,2.5,0,0,1,.2.6l.9.6a24.3,24.3,0,0,1,9.4,10.6c.8-.8,1.5-1.7,2.3-2.6C-1363.4,498.4-1367.9,495.6-1373.1,493.2Z" transform="translate(1860.3 -58.7)"/><path class="cls-50" d="M-1565,501.4c1-1.1,1.7-2.7,3.5-2.9h0c.5-.8,1-1.6,1.4-2.4a212.3,212.3,0,0,0,12.2-31,208.3,208.3,0,0,0,6.5-30.2c.5-4.1.4-8.4,4.8-10.8.8-3.6,2.6-7,3.1-10.7a77.4,77.4,0,0,0,1.3-9.5,2.4,2.4,0,0,1,.9-2.1h0c-1.3-2.5,1-2.3,2.1-2.6,3.9-.8,4.6-2,3.4-5.7a7.7,7.7,0,0,0-.7-1.6c-3-7.1-7.9-13.1-10.5-20.3-.3,1.2-.6,2.3-1,3.5h0a15.5,15.5,0,0,1-.4,2.1,91.4,91.4,0,0,1-20.2,36.4h0c.8.7.1,1.4-.2,1.9-1.5,3.4-3,6.9-3,10.7s-2.5,6-5.2,8.1a24.8,24.8,0,0,1-2.6,1.9,56,56,0,0,0-15.4,14.1,119,119,0,0,0-13.2,22.3,36.3,36.3,0,0,0-2.9,8.4c-.2.7-.5,1.5.3,2s1.4-.2,1.9-.7l.9-1c5.4-6,10.3-12.4,15.4-18.6,2.2-2.7,4.2-5.6,6.9-7.9a2.2,2.2,0,0,1-.3,2.1c-1.2,2.2-2.4,4.4-3.7,6.6-5.8,10.4-11.5,20.8-16.6,31.5a44.5,44.5,0,0,0-3.4,8.8c-.1.6-.5,1.3.1,1.8s1.4-.1,2-.5a43.5,43.5,0,0,1,6-4.3c.6-.3,1.3-.8,2-.2a1.7,1.7,0,0,1,.3,2.1c-.5,1.4-1,2.9-1.6,4.3-1.9,3.9-4,7.6-6.2,11.4,3.1,2.8,6.4,5.5,9.7,8l11.6-13C-1572.2,509.4-1568.7,505.4-1565,501.4Zm-12.5-16.7a.8.8,0,0,1,1.1-.3.9.9,0,0,1,.3,1.2,20.3,20.3,0,0,1-5.5,9.9c-.3.3-.6.7-1.1.4s-.3-.8-.3-1.5A25.6,25.6,0,0,1-1577.5,484.7Zm26.2-51.1c1.2,3.3-8.4,27.1-12.3,30.2A107.9,107.9,0,0,1-1551.3,433.6Z" transform="translate(1860.3 -58.7)"/><path class="cls-52" d="M-1467.9,323.1l9.1,16.9h0c.5-2.5.9-5.1,1.4-7.7.2-1,.4-2.4,1.7-2.5s1.4,1.2,1.9,2.1a28.2,28.2,0,0,0,2.1,3.8,31.6,31.6,0,0,0,6.6,2.7,16.7,16.7,0,0,1,10,8.6q10.3,20.5,20.6,41.1a4.2,4.2,0,0,1,.4,1c6.6,12.8,12.8,25.8,18.9,38.8a3,3,0,0,0,.4,1c1.9.6,3.7,1.4,5.7,1.3h0c-3.3-7.6-7.3-14.7-11-22l-.9-2-20.6-38.5-3-5.7a37.8,37.8,0,0,1-3.5-6.6c-.6-.7.2-.8.6-1,11.6-6,17.8-15.6,19.5-28.4.2-1.7-.3-2.4-2-2.5a20.5,20.5,0,0,1-5.9-1.5c-.9-.3-2.2-.6-2.1-1.8s1.3-1.3,2.2-1.5a24.3,24.3,0,0,1,6-1c.6,0,1.5.2,1.3-.9s-.2-2.6-2.2-2.8c-3.6-.4-7.1-1.2-10.6-1.9-6.3-1.4-12.6-2.8-18.4-5.9-1.3-.7-3-1.5-2.8-3.3s2.1-2.1,3.5-2.5a40,40,0,0,1,10.8-1.4h10.6c-12.5-14.3-35.3-14.6-47.6-3.4a39.3,39.3,0,0,1,8.4,2.7c.7.4,1.7.8,1.6,1.8s-1.2,1-1.9,1.2c-2.3.5-4.8,1-7,.4-6-1.4-9.4,1.1-11.4,6.6h0C-1472.9,313.2-1470.4,318.1-1467.9,323.1Z" transform="translate(1860.3 -58.7)"/><path class="cls-53" d="M-1462.1,372.1h.5c1,2.9,1.9,5.9,2.9,8.8.7-1.9.1-3.8,0-5.8-.2-6,.4-12,.7-18s.4-9.5,1-14.1a2.7,2.7,0,0,1,1.2-2.3c1.5,7.5,1.8,15.1,5.3,22.5,0-.1.1,0,.1,0,.7-2.5.2-4.5,1.3-6.8,2.7,7.3,3.7,14.7,7,21.8.8-1.5.2-2.9.6-4.5,1.3,3.5,2.4,6.6,3.5,9.7s3.4,6.5,5.3,9.7c.2.4.8.8.3,1.3l3.1,5.3a75.7,75.7,0,0,0,7,10.7,11.9,11.9,0,0,0,3.9,3.5c1.6.9,2.7.3,2.9-1.5s0-3,.1-4.5-.4-1.6.5-1.9,1.1.5,1.5,1a32.5,32.5,0,0,1,2.3,2.9,95.9,95.9,0,0,1,8.9,14.7c1.6,3.4,4.1,4.3,7.4,4.4a3,3,0,0,1-.4-1c-6.1-13-12.3-26-18.9-38.8-1,.8-.1,2.1-.8,3.2-1.4-1.6-1.7-3.5-2.6-5.2s-.8-1.6-1.3-2.3-.7-1.2-1.4-1.2-.7,1-1.2,1.7c-4-8.1-7.2-16.5-12.1-24.6-.7,2.6,1.2,4.5.6,6.9a22.8,22.8,0,0,1-3.4-5.5,112.2,112.2,0,0,1-5.8-12.7,25.2,25.2,0,0,0-3.8-6.3c-.4-.4-.7-1.1-1.4-.8s-.1.9-.5,1.7c-1.7-2.8-3.3-5.3-3.9-8.3a28.2,28.2,0,0,1-2.1-3.8c-.5-.9-.8-2.2-1.9-2.1s-1.5,1.5-1.7,2.5c-.5,2.6-.9,5.2-1.4,7.7h0c-.4,5.1-.9,10.1-1.4,15.5-1.2-2-.8-4-1.1-5.9a113.4,113.4,0,0,0-6.7-25.4c-.2-.4-.4-.8.1-1.1-2.5-5-5-9.9-7.6-14.8h0l-1.6-1.8c-1.3.8-1.7,2.2-2.1,3.5a29.3,29.3,0,0,0-1,6.6c0,7.1-.1,14.1.5,21.2.3,3.2.6,6.3.8,9.5.4,6.2-1.1,12-2.8,17.8s-3.2,10.2-5,15.4l12.9-17.3h.6c-.1,2.8.4,5.5.4,8.3.1,5.3.1,10.7,0,16a4.3,4.3,0,0,0,1.7,3.8l1.1,1c4.2,3.3,6.4,7.7,7.6,12.8a33.7,33.7,0,0,0,1,3.4h0l4.4,1.8h0C-1459.8,397.8-1462,385-1462.1,372.1Z" transform="translate(1860.3 -58.7)"/><path class="cls-49" d="M-1329.9,436.5a11.3,11.3,0,0,1-7.9-5.3c-2.6-3.9-3.2-3.9-5.8.1-1.3,2.1-3.4,3.5-4.9,5.5h0c2.6.5,5.2.6,7.8.9,4.7.6,9.5,1,14.2,1.4.2-.9.5-1.7.7-2.6A28,28,0,0,1-1329.9,436.5Z" transform="translate(1860.3 -58.7)"/><path class="cls-54" d="M-1328.1,430.7h0c-1.6,1.6-3.1,1.1-4.6-.2a17.8,17.8,0,0,1-3.1-4c-.3.7.3,1.3-.2,1.9h-.5c-2.4-1.5-3.8-3.7-5.2-6.1a16.2,16.2,0,0,0-6.2-6.8l1.9,3.2c-5-1.4-10.7-10.4-10.7-16.7-1.8-2.3-3.4-2.5-5.6-.5s-4.2,5.7-5.9,8.8-2.2,4.6-3.3,6.9a3.6,3.6,0,0,1-1.4,1.8h0a16.9,16.9,0,0,1-5.7,7c-1.6,1.2-3.2.9-4.6-.6a17.3,17.3,0,0,1-4.2-7.3,11.9,11.9,0,0,0-1.1-2.6c.3,3,1.2,5.9,1.1,9-2.4-5.3-2.9-11.2-5.6-16.4-.4,1.4.2,2.8-.2,4.3-1.3-.1-1.4-1.1-1.7-1.9a25.5,25.5,0,0,1-1.1-11.6,24.8,24.8,0,0,0,.3-2.7c-1-.3-1.3-.2-1.8,1a77.5,77.5,0,0,0-3.5,9.1h0l.9,2c3.7,7.3,7.7,14.4,11,22h0l1.4.5c5,.9,10.1,2,15.1,2.8,8,1.3,16,2.7,24.1,3.3h0c1.5-2,3.6-3.4,4.9-5.5,2.6-4,3.2-4,5.8-.1a11.3,11.3,0,0,0,7.9,5.3,28,28,0,0,0,4.1,0,171.5,171.5,0,0,0,4.3-22.9c-.6,1.7-1.2,3.5-1.7,5.3A43.4,43.4,0,0,1-1328.1,430.7Z" transform="translate(1860.3 -58.7)"/><path class="cls-50" d="M-1462.4,405.2c-1.2-5.1-3.4-9.5-7.6-12.8l-1.1-1a4.3,4.3,0,0,1-1.7-3.8c.1-5.3.1-10.7,0-16,0-2.8-.5-5.5-.4-8.3h-.6l-12.9,17.3c1.8-5.2,3.5-10.3,5-15.4s3.2-11.6,2.8-17.8c-.2-3.2-.5-6.3-.8-9.5-.6-7.1-.5-14.1-.5-21.2a29.3,29.3,0,0,1,1-6.6c.4-1.3.8-2.7,2.1-3.5-1.7-1.4-2.6-1.3-3.6.5a10.1,10.1,0,0,0-1.3,3c-1.3,3.9-1.5,8.1-2.6,12.1s-2.9,9.8-6.3,13.7-5.6,3.1-8-.8l-1-1.6a120,120,0,0,1-4.7,12c1.2.5,1.7-1,3-.9-.6,1.6-1.2,3-1.8,4.4a37.6,37.6,0,0,0-2.5,10.4c-.1.8-.5,2.1.7,2.4s1.5-.9,1.9-1.6,2-3.5,3.1-5.2a6.4,6.4,0,0,1,2.3-2.7,19.4,19.4,0,0,1-1.5,5,112.6,112.6,0,0,0-4.5,12.7c-.2.6-.6,1.4,0,1.8s1.2-.2,1.7-.6,1-1.1,1.6-.7.3,1.2.2,1.8a39.9,39.9,0,0,0,.1,16.5h0a331.2,331.2,0,0,0,38.9,19.9h0A33.7,33.7,0,0,1-1462.4,405.2Z" transform="translate(1860.3 -58.7)"/><path class="cls-44" d="M-1333.5,360.1c-5.6-5-11.8-7.7-19.3-4-.9.4-1.1,0-1.6-.6a27.8,27.8,0,0,0-6-5.3c-8.8-5.5-22.4-3.4-26.6,9.5-.5,1.6-.8,3.3-1.2,5-.7-.2-.9-.9-1.2-1.3-3.7-5.5-8.9-7.9-15.5-7.2-3.3.3-6.4,1.4-9.7,1.8-4.8.7-9.2-.9-13.5-2.6a37.8,37.8,0,0,0,3.5,6.6c3.2-.3,6.2.8,9,2.1s5.3,2.9,8.1,3.8,3.4.1,3.9-2.4,1.4-2.8,3.6-1.9,3.7,1.8,5.5,2.7a12.5,12.5,0,0,0,9.3,1.2c2.9-.8,6-1.3,8.9.2s2.8,2.4,4.1,3.6c.8-.5.6-1.4.8-2.2,2.4-8.5,12-9,17-4.4,1.5,1.4,2.6,2,4.7,1.4a8.3,8.3,0,0,1,8.4,2.5c3.1,3.2,6.3,5.9,11.1,5.8,1.2-.1,1.8,1,2.3,2,2.1,4,3.4,5.1,7,4.8-.4-4.3-.9-8.6-1.5-12.8a12,12,0,0,1-5.3-2.9C-1329.7,363.7-1331.5,361.8-1333.5,360.1Z" transform="translate(1860.3 -58.7)"/><path class="cls-44" d="M-1569.5,369.1l31.5,6h0c.4-1.2.7-2.3,1-3.5s.8-2.6,3.1-1.8c1.5-.8.7-2,.5-3.1a19.7,19.7,0,0,0-.7-2.6h0c-4.7-.2-8-2.8-11-6.1a5.2,5.2,0,0,0-1.1-1c-2.7-2-5.8-3.9-9.1-2.7s-4.4,0-6.4-1.8c-6.7-6-16.5-3.3-19.3,5.2a29.9,29.9,0,0,0-.9,3.2c-4.9-5.8-7.9-6.9-15.1-4.9a14.5,14.5,0,0,1-11-1.2l-6.6-3.3c-3.1-1.2-4-.6-4.3,2.6s-1.3,3.2-3.6,2.7a16.6,16.6,0,0,1-3.1-1.2c-3.5-1.6-6.8-3.5-10.4-4.9a20.3,20.3,0,0,0-9.7-1.3h-.8c-.5,1.6-.9,3.2-1.3,4.8l42.1,7.9C-1593.6,364.4-1581.5,366.8-1569.5,369.1Z" transform="translate(1860.3 -58.7)"/><path class="cls-43" d="M-1500.4,372.2c.1-.6.4-1.4-.2-1.8s-1.1.3-1.6.7-1,1.2-1.7.6-.2-1.2,0-1.8a112.6,112.6,0,0,1,4.5-12.7,19.4,19.4,0,0,0,1.5-5,6.4,6.4,0,0,0-2.3,2.7c-1.1,1.7-2.1,3.5-3.1,5.2s-.9,1.8-1.9,1.6-.8-1.6-.7-2.4a37.6,37.6,0,0,1,2.5-10.4c.6-1.4,1.2-2.8,1.8-4.4-1.3-.1-1.8,1.4-3,.9-5.4,10.3-12.7,19.3-20.8,27.6h0c1.6,1.5,3.8,2.3,5.7,3.5s1.4.6,1.5,1.5l17.9,10.7h0A39.9,39.9,0,0,1-1500.4,372.2Z" transform="translate(1860.3 -58.7)"/><path class="cls-52" d="M-1619.9,424a25.4,25.4,0,0,1-1.6-3.8c-1.2-4.2-2.2-8.4-3.5-12.6a66.3,66.3,0,0,0-3.9-10.5h0c-2.9,8.7-3.8,17.9-4.6,27a30.5,30.5,0,0,0,1.9-3c.3-.6.8-.8,1,0a8.4,8.4,0,0,1,.5,3.1c-.3,4,1,7.6,2.5,11.1s3.1,4.8,5.1,6.9c-.8-2.2-1.6-4.3-2.2-6.5s-1-5.6-.6-7h.1c.7,2.3,1.2,4.4,2.8,6s1.1,1.5,2,1.1.6-1.3.3-2.1a1.1,1.1,0,0,1,.3-1.3c1.4,1,1.6,3,3.2,4.2a11.1,11.1,0,0,1-.4-6.2,39.3,39.3,0,0,1,2-5.4C-1617.2,426.7-1618.5,426.5-1619.9,424Z" transform="translate(1860.3 -58.7)"/><path class="cls-52" d="M-1601,419.2c-.6-.9-1.3-1.7-2-2.6s-.9-1.3-1.9-1.3h0a11.3,11.3,0,0,0-3.1,6.6v4.4a34,34,0,0,0,2.5,8.4c.4-2.9-.8-5.8.4-8.7,1,1.5,1.4,3.4,3,4.5,4.3,3.1,13,2.6,17-1a1.7,1.7,0,0,0,.2-2.7c-.6-1-2.4-1.8-1.2-3.5h0l-2.5.6C-1593.7,424.8-1598.2,424.1-1601,419.2Z" transform="translate(1860.3 -58.7)"/><path class="cls-44" d="M-1565.4,294.9c.1-1.1-1.1-1.4-2-1.9l-1.7-.8a70.7,70.7,0,0,0-21.4-4.2,16.1,16.1,0,0,0-2.2,0c-1.1.1-2.9-.4-3.1,1s1.4,1.7,2.4,2.2a65.1,65.1,0,0,0,25.4,4.7C-1567,295.9-1565.7,296.1-1565.4,294.9Z" transform="translate(1860.3 -58.7)"/><path class="cls-55" d="M-1526.5,372.8h0l.3-2.4c0-2.5-.8-4.9-1.1-7.4,0-.6-.5-1.4.3-1.9h0c.8-1.2-.3-3.3,1.9-3.9h0l.3-.4a2.4,2.4,0,0,0-1.2-2.7,3.6,3.6,0,0,1-1.5-2.4h0a.9.9,0,0,1-.4-.9,1.1,1.1,0,0,0-1.1-1.3c-.8.1-1.4,1.1-1.2,1.6s-.3,2.9-.6,4.3c-.6,3.1-2.5,5.7-3.3,8.7h0a19.7,19.7,0,0,1,.7,2.6c.2,1.1,1,2.3-.5,3.1s-1,0-1,.5.5.7.9.7a3.9,3.9,0,0,0,3-.2c-.2-.2-.7-.5-.7-.7-.1-2-.1-3.9-.2-5.9h0l2.5-1.6c.7,2.7,2,5.1,1.9,7.8a1.5,1.5,0,0,1-.8,1.6h0a5.3,5.3,0,0,1-.1,1.3h0l1.1.3Z" transform="translate(1860.3 -58.7)"/><path class="cls-56" d="M-1614,404.1a93.5,93.5,0,0,0,18.2,3.8c2,.3,4.2.3,6.3.4s1.7.2,1.9-.6-1-1-1.7-1.4h-.4a82.1,82.1,0,0,0-19.6-3.9c-2.3-.2-4.7-1-7.3.3A5,5,0,0,0-1614,404.1Z" transform="translate(1860.3 -58.7)"/><path class="cls-57" d="M-1346.5,316.5c-.1.8.9,1,1.5,1.3a62.8,62.8,0,0,0,7,2.2l-2.1-4a34,34,0,0,0-4.5-.3C-1345.3,315.7-1346.3,315.7-1346.5,316.5Z" transform="translate(1860.3 -58.7)"/><path class="cls-58" d="M-1546.6,294a32.6,32.6,0,0,0,11,2.2c.7,0,1.7.2,1.8-.7s-.6-.9-1.2-1.1a37.3,37.3,0,0,0-9.8-2.1h-1.4c-.7.1-1.7-.3-1.8.6S-1547.1,293.8-1546.6,294Z" transform="translate(1860.3 -58.7)"/><path class="cls-59" d="M-1519.7,376.5c-1.9-1.2-4.1-2-5.7-3.5h0l-1.1-.2h0l-.8.8,9.1,4.4C-1518.3,377.1-1519.2,376.9-1519.7,376.5Z" transform="translate(1860.3 -58.7)"/><path class="cls-60" d="M-1527,361.1h0c-.8.5-.3,1.3-.3,1.9.3,2.5,1.1,4.9,1.1,7.4.9-.7.6-1.7.5-2.5s-.9-4.5-1.3-6.8Z" transform="translate(1860.3 -58.7)"/><path class="cls-61" d="M-1526,354.1a2.4,2.4,0,0,1,1.2,2.7c.6-.6,1.1-1.3.4-2.1l-3.1-3h0A3.6,3.6,0,0,0-1526,354.1Z" transform="translate(1860.3 -58.7)"/><path class="cls-60" d="M-1527,361.1h0c1.4-.9.9-2.7,1.9-3.9h0C-1527.3,357.8-1526.2,359.9-1527,361.1Z" transform="translate(1860.3 -58.7)"/><path class="cls-47" d="M-1434.9,440.2a43.9,43.9,0,0,0-19.6-6.9,15.6,15.6,0,0,0-7.1.4c-2.3.9-2.8,2.5-1.4,4.5a13,13,0,0,0,3.1,3.1,45.1,45.1,0,0,0,22.7,7.5c2.7,0,4.1-.2,5.2-.7s2.2-2.3,1.2-4A11.8,11.8,0,0,0-1434.9,440.2Zm-1.4,5.7c-1.1,1.9-2.9,1.9-4.6,1.7-5-.6-9.8-1.9-13.8-5.3l-.9-.5h0c-.8-1-2.1-1.7-1.5-3.2s2.1-1.4,3.4-1.4a25.4,25.4,0,0,1,15.1,4.8C-1437.4,442.8-1435.5,443.7-1436.3,445.9Z" transform="translate(1860.3 -58.7)"/><path class="cls-53" d="M-1365.2,466.4c5.1,2.2,10.2,4.6,16,4.9,3,.1,5.1-1,6-3.9h0a9.8,9.8,0,0,0-4.7-4.3,19.3,19.3,0,0,0-18.5,1.3C-1366.8,465.4-1366.1,466-1365.2,466.4Z" transform="translate(1860.3 -58.7)"/><path class="cls-62" d="M-1343.2,467.4c-.9,2.9-3,4-6,3.9-5.8-.3-10.9-2.7-16-4.9-.9-.4-1.6-1-1.2-2s-1.1.2-1.1.8.9,1.3,1.6,1.5c5.2,1.9,9.8,5.1,14.9,7.3,1,.7,2.3.2,3.4.5h0c1.4-.1,2.9.2,4-.4a6.1,6.1,0,0,1,3.2-.6l2.5-4.8a31.6,31.6,0,0,0-5.3-1.3Z" transform="translate(1860.3 -58.7)"/><path class="cls-63" d="M-1478.8,410.7c1.1.1,2.2,0,2.2-1.4-1.7-6-10.5-10.8-16.6-9-1.4.4-1.8,1.1-.6,2.3l1.8,1.9,6.3,3.7C-1483.5,409.3-1481.3,410.5-1478.8,410.7Z" transform="translate(1860.3 -58.7)"/><path class="cls-64" d="M-1351,474c-5-.3-9.7-2.1-14.4-3.5a17.5,17.5,0,0,1-6.1-2.7c-.6-.6-1.6-1.1-1.3-2.1s1.1-1.2,2-1.4l2.3-.6a13.1,13.1,0,0,0-2.2-.5h-8.5a2.5,2.5,0,0,0-2.3,1.5c-.3.9.7,1.4,1.2,1.9a16.4,16.4,0,0,0,2.2,1.4c7.3,3.6,15.2,5.3,23.2,6.5,2.2.4,4.4.6,6.7.9.4,0,1.5.3.6-.8h0C-1348.7,474.2-1350,474.7-1351,474Z" transform="translate(1860.3 -58.7)"/><path class="cls-65" d="M-1469.7,414.5l-6.9-5.2h0c0,1.4-1.1,1.5-2.2,1.4s-4.7-1.4-6.9-2.5l-6.3-3.7c3.8,3.8,8.5,6.4,13.2,9.1a41.1,41.1,0,0,0,10.2,4.7c.6.1,1.3.3,1.7-.2s-.2-1.1-.6-1.5A14.7,14.7,0,0,0-1469.7,414.5Z" transform="translate(1860.3 -58.7)"/><path class="cls-53" d="M-1482.5,484c-6,9.7-13.8,17.8-22.1,25.5-2.9,2.7-6.1,5.1-9,7.9s-6.2,4.3-8.1,7.8c4.4,2.9,8.8,2.4,13.4.3,7.8-3.5,14.7-8.6,21.6-13.7,2.1-1.5,3.8-3.6,6.3-4.5h0c5.6-5.8,10.6-12.2,16.5-17.6-6.9,13.2-17.7,23.5-26.7,35.1,4.6-3,8.5-6.9,13.3-9.7-1.8,3.2-3.9,6.2-5.8,9.2s-5.4,8.7-6.5,13.8c-.6,2.9.9,5.1,3.8,5.4a18.2,18.2,0,0,0,5.7-.3c5.5-1.1,10.3-3.8,15.1-6.5s7.3-5.3,11-7.8c.4-.3.9-.8,1.4-.4s.1,1-.1,1.4c-.9,2.1-1.9,4.1-2.9,6.1a9,9,0,0,0-1.4,4.8c0,1.8.9,2.5,2.7,2.2a21.6,21.6,0,0,0,4.3-1.4c3.6-1.6,5.6-.3,5.7,3.7.1,1.7,0,3.5,0,5.2h0a2.3,2.3,0,0,0,1-.4,94.1,94.1,0,0,0,14.7-14.2c9.7-12.2,15.8-25.9,17.1-41.5.1-1.3.6-1.5,1.6-1.2,3.7,1.1,7.5,2.1,10.7,4.4,7.9,3.4,11.6,10.5,8.7,18.5a34.9,34.9,0,0,1-7.4,11.5,130.3,130.3,0,0,1-18,16h0c1,.6,1.5-.3,2.1-.7a118.3,118.3,0,0,0,9.8-7.7,64,64,0,0,0,15.5-17.3c2.1-3.6,3.5-7.5,2.5-11.8s-4.8-8.2-9.1-10.6c-6.1-3.4-12.8-4.8-19.4-6.5-18.7-4.6-37.5-8.2-56.5-11.2-2.5-.4-5.4-.3-7-2.9a4.9,4.9,0,0,0-1.1,2.3A39.3,39.3,0,0,1-1482.5,484Zm33.6,31.6c.5-.4,1.1-1.1,1.7-.5s0,1.1-.3,1.6a81.7,81.7,0,0,1-13.9,14.9,4.1,4.1,0,0,1-1.1.7l-1,.2c.9-2.6,2.6-4.4,4.1-6.2A66.4,66.4,0,0,1-1448.9,515.6Z" transform="translate(1860.3 -58.7)"/><path class="cls-53" d="M-1572.1,520.5c.6.5,1-.1,1.5-.5a48.4,48.4,0,0,0,8.1-8.2c8.3-10.4,15.4-21.7,22.4-33,1.5-2.4,3.1-4.8,4.7-7.1a1.2,1.2,0,0,1-.1,1.3c-3.4,7.9-7.3,15.6-11.1,23.3a41,41,0,0,0-2.1,4.8,1.2,1.2,0,0,0,.1,1.4c.5.4,1,0,1.4-.3s1.1-1,1.6-1.4.8-.6,1.2-.3.2.8,0,1.2-1,2.5-1.6,3.8c-2.6,5.5-5.6,10.9-7.3,16.8-1.3,4.3.8,7.2,5.3,7.2,3.1-3.5,6.6-6.8,9.8-10.3a181.3,181.3,0,0,0,24.5-33.2c5.3-9.6,9.4-19.5,11.4-30.3a34,34,0,0,0,.7-4.6c0-1.8.9-2.3,2.5-1.9a116.6,116.6,0,0,1,16.3,4.7h0a33.3,33.3,0,0,1,8,4c2.3,1.7,5,3.3,4.7,6.9h0c1.3-1.5,1.2-3.5-.5-5.4a23.1,23.1,0,0,0-6.3-5.3c-9.4-4.9-19.6-7.2-30-9-8.8-1.6-17.6-3.3-25.7-7.2-1.9-.9-2,.2-2.2,1.4a138.1,138.1,0,0,1-6.5,24.7,177,177,0,0,1-26.1,47.4c-.4.5-.6,1.5-1.6,1.1a31.9,31.9,0,0,0-3.2,6.4C-1572.4,519.5-1572.7,520.1-1572.1,520.5Z" transform="translate(1860.3 -58.7)"/><path class="cls-53" d="M-1483.2,453.9Z" transform="translate(1860.3 -58.7)"/><path class="cls-50" d="M-1499.1,449.2c-1.6-.4-2.5.1-2.5,1.9a34,34,0,0,1-.7,4.6c-2,10.8-6.1,20.7-11.4,30.3a181.3,181.3,0,0,1-24.5,33.2c-3.2,3.5-6.7,6.8-9.8,10.3a4.5,4.5,0,0,0,3.6.4,41.9,41.9,0,0,0,22.9-10.4c3.2-2.8,6.1-6,9.4-8.8a5.5,5.5,0,0,1,2.2-2.6h0l.4-.4c2.2-2.9,4.4-5.8,6.4-8.8a126.3,126.3,0,0,0,18.6-41.9c.2-1.1.1-2.4,1.3-3.1h.4A116.6,116.6,0,0,0-1499.1,449.2Z" transform="translate(1860.3 -58.7)"/><path class="cls-66" d="M-1486.7,511.8c-6.9,5.1-13.8,10.2-21.6,13.7-4.6,2.1-9,2.6-13.4-.3-1,1.1-1.9,2.4-1.2,3.9s2.3,1.4,3.7,1.3a30.6,30.6,0,0,0,10.8-2.2c11-4.7,19.9-12.3,28-20.9h0C-1482.9,508.2-1484.6,510.3-1486.7,511.8Z" transform="translate(1860.3 -58.7)"/><path class="cls-67" d="M-1483.2,453.9c-1.2.7-1.1,2-1.3,3.1a126.3,126.3,0,0,1-18.6,41.9c-2,3-4.2,5.9-6.4,8.8,1.7-.1,2.1-1.7,2.9-2.7a108.8,108.8,0,0,0,12.6-19.1,116.6,116.6,0,0,0,8.1-19.7c1.3-4,2.8-8,2.7-12.3Z" transform="translate(1860.3 -58.7)"/><path class="cls-67" d="M-1512.1,510.7c1.7,0,2.2-1,2.2-2.6h0A5.5,5.5,0,0,0-1512.1,510.7Z" transform="translate(1860.3 -58.7)"/><path class="cls-43" d="M-1415.9,543.6a130.3,130.3,0,0,0,18-16,34.9,34.9,0,0,0,7.4-11.5c2.9-8-.8-15.1-8.7-18.5-.1,1.5.1,3.1-.1,4.6a68.6,68.6,0,0,1-8.9,25.6,90.1,90.1,0,0,1-17.6,21.3l5.6-2.3,4.3-3.2Z" transform="translate(1860.3 -58.7)"/><path class="cls-43" d="M-1532.2,403.9a77.4,77.4,0,0,1-1.3,9.5c-.5,3.7-2.3,7.1-3.1,10.7a32,32,0,0,1,5.2-2.7c3.5-1.5,7.3-2.5,10.5-4.8s3.5-4.6.6-7.5a24.8,24.8,0,0,0-4.5-3.3l-6.5-4h0A2.4,2.4,0,0,0-1532.2,403.9Z" transform="translate(1860.3 -58.7)"/><path class="cls-68" d="M-1527.5,370.4c-2.3-1.5-2.5-4.4-4.4-6.2h0c.1,2,.1,3.9.2,5.9,0,.2.5.5.7.7a4.5,4.5,0,0,1,2.7,1.2h0A1.5,1.5,0,0,0-1527.5,370.4Z" transform="translate(1860.3 -58.7)"/><path class="cls-50" d="M-1432.7,393c-1.9-3.2-4.1-6.2-5.3-9.7s-2.2-6.2-3.5-9.7c-.4,1.6.2,3-.6,4.5-3.3-7.1-4.3-14.5-7-21.8-1.1,2.3-.6,4.3-1.3,6.8h-.1c-3.5-7.4-3.8-15-5.3-22.5a2.7,2.7,0,0,0-1.2,2.3c-.6,4.6-.7,9.4-1,14.1s-.9,12-.7,18c.1,2,.7,3.9,0,5.8a10.6,10.6,0,0,0,.4,1.9c2,6.4,3.9,12.8,6.8,18.9.4.8.7,2.2,1.7,1.9s.7-1.6.5-2.5c-.4-2.7-.9-5.3-1.4-8s-1.7-6.8-1.8-10.4c1.8,3.4,3.4,6.9,4.9,10.3s4.1,9.1,7.3,12.9c1.1,1.3,2.3,3.2,4.2,2.6s1.5-2.8,1.6-4.5.1-5.9.3-8.9c.1-1.5.7-1.9,1.8-.7C-1431.9,393.8-1432.5,393.4-1432.7,393Z" transform="translate(1860.3 -58.7)"/><path class="cls-41" d="M-1608,426.3h0v-4.4A6.1,6.1,0,0,0-1608,426.3Z" transform="translate(1860.3 -58.7)"/><path class="cls-43" d="M-1551.3,433.6a107.9,107.9,0,0,0-12.3,30.2C-1559.7,460.7-1550.1,436.9-1551.3,433.6Z" transform="translate(1860.3 -58.7)"/><path class="cls-43" d="M-1581.6,495.5a20.3,20.3,0,0,0,5.5-9.9.9.9,0,0,0-.3-1.2.8.8,0,0,0-1.1.3,25.6,25.6,0,0,0-5.5,9.7c0,.7-.1,1.2.3,1.5S-1581.9,495.8-1581.6,495.5Z" transform="translate(1860.3 -58.7)"/><path class="cls-69" d="M-1398.8,371.6l-21-4c-.6-.1-1.3-.6-1.8.1l20.6,38.5h0a77.5,77.5,0,0,1,3.5-9.1c.5-1.2.8-1.3,1.8-1s1.3.6,1.7,1.1a62.5,62.5,0,0,1,4.5,9.4c1.7,4,3.4,8,6.1,11.5a8.7,8.7,0,0,0,4.4,3.4c2.7.7,4.4-1,6.1-2.6h0a3.6,3.6,0,0,0,1.4-1.8c1.1-2.3,2.1-4.7,3.3-6.9s3.2-6.3,5.9-8.8,3.8-1.8,5.6.5c3.1,5.5,8.2,7.7,14.1,8.7a9,9,0,0,1,7.4,6.6c1.1,3.7,2.5,7.3,3.9,10.9.5,1.4,1.2,2.8,3.2,2.6h0a43.4,43.4,0,0,0,4.9-11.8c.5-1.8,1.1-3.6,1.7-5.3a173.7,173.7,0,0,0,1.1-19.2c0-2.7-.1-5.4-.2-8.1l-14-2.6Z" transform="translate(1860.3 -58.7)"/><path class="cls-70" d="M-1327.9,376.4c-.5-1-1.1-2.1-2.3-2-4.8.1-8-2.6-11.1-5.8a8.3,8.3,0,0,0-8.4-2.5c-2.1.6-3.2,0-4.7-1.4-5-4.6-14.6-4.1-17,4.4-.2.8,0,1.7-.8,2.2-1.3-1.2-2.4-2.7-4.1-3.6s-6-1-8.9-.2a12.5,12.5,0,0,1-9.3-1.2c-1.8-.9-3.6-1.9-5.5-2.7s-3.2-.3-3.6,1.9-1.4,3.1-3.9,2.4-5.4-2.6-8.1-3.8-5.8-2.4-9-2.1l3,5.7c.5-.7,1.2-.2,1.8-.1l21,4,64.2,12.1,14,2.6-.3-5.1C-1324.5,381.5-1325.8,380.4-1327.9,376.4Z" transform="translate(1860.3 -58.7)"/><path class="cls-71" d="M-1435.1,347a16.7,16.7,0,0,0-10-8.6,31.6,31.6,0,0,1-6.6-2.7c.6,3,2.2,5.5,3.9,8.3.4-.8-.1-1.5.5-1.7s1,.4,1.4.8a25.2,25.2,0,0,1,3.8,6.3,112.2,112.2,0,0,0,5.8,12.7,22.8,22.8,0,0,0,3.4,5.5c.6-2.4-1.3-4.3-.6-6.9,4.9,8.1,8.1,16.5,12.1,24.6.5-.7.3-1.6,1.2-1.7s1.1.7,1.4,1.2.8,1.5,1.3,2.3,1.2,3.6,2.6,5.2c.7-1.1-.2-2.4.8-3.2a4.2,4.2,0,0,0-.4-1Q-1424.7,367.5-1435.1,347Z" transform="translate(1860.3 -58.7)"/><path class="cls-50" d="M-1467.9,323.1c-.5.3-.3.7-.1,1.1a113.4,113.4,0,0,1,6.7,25.4c.3,1.9-.1,3.9,1.1,5.9.5-5.4,1-10.4,1.4-15.5h0Z" transform="translate(1860.3 -58.7)"/><path class="cls-52" d="M-1346,418.6l-1.9-3.2a16.2,16.2,0,0,1,6.2,6.8c1.4,2.4,2.8,4.6,5.2,6.1h.5c.5-.6-.1-1.2.2-1.9a17.8,17.8,0,0,0,3.1,4c1.5,1.3,3,1.8,4.6.2h0c-2,.2-2.7-1.2-3.2-2.6-1.4-3.6-2.8-7.2-3.9-10.9a9,9,0,0,0-7.4-6.6c-5.9-1-11-3.2-14.1-8.7C-1356.7,408.2-1351,417.2-1346,418.6Z" transform="translate(1860.3 -58.7)"/><path class="cls-52" d="M-1394.9,410.4c.3.8.4,1.8,1.7,1.9.4-1.5-.2-2.9.2-4.3,2.7,5.2,3.2,11.1,5.6,16.4.1-3.1-.8-6-1.1-9a11.9,11.9,0,0,1,1.1,2.6,17.3,17.3,0,0,0,4.2,7.3c1.4,1.5,3,1.8,4.6.6a16.9,16.9,0,0,0,5.7-7h0c-1.7,1.6-3.4,3.3-6.1,2.6a8.7,8.7,0,0,1-4.4-3.4c-2.7-3.5-4.4-7.5-6.1-11.5a62.5,62.5,0,0,0-4.5-9.4c-.4-.5-.5-1.7-1.7-1.1a24.8,24.8,0,0,1-.3,2.7A25.5,25.5,0,0,0-1394.9,410.4Z" transform="translate(1860.3 -58.7)"/><path class="cls-72" d="M-1527.5,370.4c.1-2.7-1.2-5.1-1.9-7.8l-2.5,1.6h0C-1530,366-1529.8,368.9-1527.5,370.4Z" transform="translate(1860.3 -58.7)"/><path class="cls-73" d="M-1439.1,442.4a28.8,28.8,0,0,0-12.7-4.1l-1.8.2c-2,.2-2.7,1.3-2,3.3h0l.9.5c4,3.4,8.8,4.7,13.8,5.3,1.7.2,3.5.2,4.6-1.7A6.5,6.5,0,0,0-1439.1,442.4Z" transform="translate(1860.3 -58.7)"/><path class="cls-74" d="M-1438.6,442a25.4,25.4,0,0,0-15.1-4.8c-1.3,0-2.8.1-3.4,1.4s.7,2.2,1.5,3.2h0c-.7-2,0-3.1,2-3.3l1.8-.2a28.8,28.8,0,0,1,12.7,4.1,6.5,6.5,0,0,1,2.8,3.5C-1435.5,443.7-1437.4,442.8-1438.6,442Z" transform="translate(1860.3 -58.7)"/><path class="cls-75" d="M-1463.5,532.5l1-.2a4.1,4.1,0,0,0,1.1-.7,81.7,81.7,0,0,0,13.9-14.9c.3-.5.8-1.1.3-1.6s-1.2.1-1.7.5a66.4,66.4,0,0,0-10.5,10.7C-1460.9,528.1-1462.6,529.9-1463.5,532.5Z" transform="translate(1860.3 -58.7)"/><path class="cls-76" d="M-1322.6,510.8c-6-10.2-1.3-16,2.2-23.8,5.8-12.8,13.1-25.4,16.3-38.8,18.5-77.1,2.1-143.2-59.8-197-36-31.4-76.6-45.5-123.2-46.3a187.2,187.2,0,0,0-77,16.3c-78.5,35.4-124.6,120-110.2,203.8,9.1,53.1,35.2,96.5,80.5,126.3,64,42.1,130.8,44.3,199.1,10,5-2.5,10.8-10.7,16.5-4.1,10,11.5,14.9,2.1,20.2-3.8,7.3-8.2,15.1-15.9,22.7-23.7C-1330.2,524.4-1318.4,517.9-1322.6,510.8Zm-135.8,40.4c-125.2,9-182.5-78.1-184.1-154.9-1.8-83.8,67.5-156.2,153.6-158.2,92.2-2.1,159.3,76,158.3,155.7C-1330.3,467.7-1398.1,546.9-1458.4,551.2Z" transform="translate(1860.3 -58.7)"/><path class="cls-76" d="M-1172,644.8c-10.1-8.2-21.5-15.1-30.3-24.4-27.1-28.5-56.9-54-86.5-79.7-12.1-10.6-20.6-8.9-30.2,1.8-3.7,4.2-7.8,8.2-11.8,12.2-23,23.2-24,24-3.2,47.5,33.9,38.6,69,76.2,104.1,113.7,14.3,15.3,32.7,19.8,51.8,10.9,17.1-7.9,27.8-21.6,26.9-42.6C-1149.6,667.1-1159.3,655.1-1172,644.8Z" transform="translate(1860.3 -58.7)"/></svg>